<svg width="512" height="512" viewBox="0 0 512 512" fill="none" xmlns="http://www.w3.org/2000/svg">
<path fill-rule="evenodd" clip-rule="evenodd" d="M65.9708 0.766106C61.9967 1.15538 61.0439 1.53055 60.8799 2.77392C60.7686 3.61472 60.4253 4.54849 60.1171 4.84896C59.809 5.14942 59.7724 4.74106 60.0355 3.94258C60.2994 3.1441 60.2186 2.49005 59.8578 2.49005C58.3322 2.49005 57.992 6.58702 57.6838 28.6995L57.3581 52.0031L59.7815 54.2225C62.0806 56.3274 62.6275 56.4412 70.4332 56.4412C74.9588 56.4412 80.5105 56.8653 82.7706 57.3832C85.03 57.902 87.6418 58.3153 88.574 58.3029C90.3627 58.2788 95.5536 63.7594 97.1127 67.3194C97.9731 69.2815 97.967 69.2807 96.6268 67.2389C94.2644 63.6399 90.1125 58.8714 89.7166 59.3022C89.5069 59.5305 90.6236 61.2702 92.1995 63.1676C93.7747 65.065 95.9662 68.7163 97.0685 71.2819C99.0533 75.8992 99.0761 76.174 99.3408 98.4815L99.6078 121.016L94.1714 124.53C91.182 126.463 88.9005 128.224 89.1018 128.443C89.304 128.663 90.6877 128.022 92.1782 127.02C93.6687 126.017 94.8884 125.384 94.8884 125.612C94.8884 126.526 89.5237 129.564 88.786 129.068C87.9607 128.513 82.3374 131.872 82.959 132.549C83.1543 132.761 84.2878 132.301 85.4778 131.525L87.6418 130.116L85.7349 131.86C84.686 132.818 83.3603 133.419 82.7882 133.193C81.7134 132.769 76.2258 136.012 76.8567 136.699C77.0519 136.911 78.1855 136.451 79.3754 135.675L81.5395 134.266L79.6325 135.978C78.5836 136.919 77.0481 137.617 76.2205 137.529C75.3921 137.44 74.7056 137.816 74.6949 138.364C74.6835 138.912 74.1762 139.845 73.5667 140.439C72.611 141.37 72.598 141.32 73.4699 140.065C74.7292 138.253 74.0412 138.21 71.6026 139.948C70.572 140.684 69.9023 141.588 70.1128 141.96C70.3241 142.332 69.3775 143.443 68.009 144.428L65.5208 146.22L67.8092 144.081C69.0678 142.904 69.8161 141.94 69.4721 141.937C68.2523 141.929 62.063 147.028 62.4551 147.718C62.674 148.103 60.5359 150.392 57.7037 152.804C54.8706 155.215 53.0132 156.571 53.5754 155.817C54.1384 155.064 56.2757 153.055 58.3261 151.354C60.3773 149.652 61.9112 148.104 61.7366 147.914C61.3498 147.493 53.1025 154.345 51.1573 156.703C50.0856 158.002 49.9437 158.766 50.5464 159.991C52.808 164.589 75.4173 180.007 92.2453 188.427C99.6147 192.115 100.853 192.138 94.3163 188.467C91.9043 187.112 90.2735 185.996 90.693 185.987C91.1126 185.978 93.5154 187.174 96.0326 188.645C100.393 191.193 100.615 191.476 100.739 194.639C100.859 197.727 100.825 197.785 100.257 195.469C99.6772 193.107 99.6414 193.16 99.5552 196.507C99.5056 198.446 99.2836 200.034 99.0624 200.034C98.8412 200.034 92.9196 196.91 85.9042 193.091C71.3012 185.143 61.0905 178.609 53.0628 172.074C49.9872 169.571 47.3235 167.683 47.1435 167.878C46.9635 168.074 48.9651 170.036 51.5914 172.238C56.937 176.72 58.5137 178.234 56.7486 177.191C54.0041 175.57 46.1199 168.304 46.2778 167.541C46.3731 167.078 45.6401 166.096 44.6492 165.358C42.8696 164.034 42.7506 164.128 34.8587 173.103C19.734 190.303 6.62156 215.638 1.61762 237.328C0.199587 243.477 -0.0193351 246.743 0.00126039 261.455C0.0233814 277.114 0.183568 279.108 2.00436 286.466C3.09211 290.865 5.03647 297.19 6.32331 300.525C11.8643 314.874 23.6555 334.148 35.2256 347.767L40.5057 353.982L43.4783 351.729C45.113 350.49 47.4036 348.168 48.5677 346.569C50.5731 343.817 54.5556 340.615 53.3634 342.714C52.4686 344.289 53.6288 343.743 59.6625 339.749C66.1447 335.459 95.0402 319.215 97.7489 318.34C99.3637 317.818 99.4652 318.024 99.4652 321.824C99.4652 325.743 99.3805 325.895 96.6047 326.959C87.4107 330.484 63.9967 344.685 61.3544 348.341C60.4993 349.523 59.7998 350.045 59.7998 349.5C59.7998 348.955 59.4512 348.744 59.0248 349.03C58.5984 349.318 58.4321 349.873 58.6549 350.266C58.8784 350.659 56.9958 352.709 54.4725 354.822C50.062 358.515 49.0017 360.366 50.6585 361.481C51.0849 361.768 51.2565 362.315 51.0391 362.697C50.6081 363.457 54.7272 367.341 63.6817 374.615C69.5933 379.417 71.4835 380.452 69.6185 377.865C68.6711 376.551 68.6978 376.521 69.8985 377.544C70.6277 378.167 71.0571 378.971 70.852 379.332C70.2112 380.461 82.4327 388.49 83.969 387.949C84.9911 387.589 85.0872 387.669 84.3351 388.255C83.5952 388.831 86.9477 391.052 96.6077 396.383L109.898 403.718L115.706 416.21C122.094 429.951 130.359 444.414 131.417 443.701C132.324 443.091 133.979 445.359 134.086 447.358C134.182 449.152 139.805 456.882 140.48 456.148C140.716 455.891 142.998 457.856 145.55 460.513C148.103 463.172 150.706 465.697 151.335 466.123C151.965 466.551 153.507 468.204 154.763 469.798C156.995 472.63 156.97 472.621 153.619 469.385C151.733 467.564 148.046 463.839 145.424 461.108C142.802 458.377 140.656 456.514 140.656 456.969C140.656 457.424 143.145 460.441 146.186 463.674C174.528 493.8 211.245 510.334 253.218 511.874C272.748 512.591 289.358 510.257 304.916 504.612C314.702 501.061 330.282 492.599 339.746 485.695C348.233 479.503 356.769 471.717 356.189 470.696C355.747 469.917 368.283 456.297 368.861 456.928C369.38 457.492 376.811 448.785 377.968 446.257C378.416 445.277 376.488 447.089 373.682 450.284L368.58 456.094L373.337 450.045C375.953 446.718 378.692 443.648 379.422 443.222C381.281 442.14 388.83 429.159 395.51 415.558L401.151 404.071L413.246 397.455C419.899 393.817 425.163 390.644 424.944 390.406C424.726 390.169 423.831 390.39 422.956 390.9C422.081 391.409 421.365 391.636 421.365 391.404C421.365 391.171 422.433 390.38 423.737 389.646C425.042 388.912 425.88 388.715 425.599 389.209C424.788 390.638 425.929 390.272 429.688 387.899C436.2 383.787 442.001 379.231 441.606 378.537C441.39 378.157 443.832 375.701 447.032 373.08C450.232 370.46 452.625 368.712 452.349 369.197C452.074 369.68 449.629 371.85 446.916 374.018C444.203 376.186 442.146 378.136 442.343 378.352C442.656 378.691 459.872 364.774 464.653 360.316C466.919 358.205 466.842 357.732 463.7 354.417C460.425 350.964 460.125 352.077 463.354 355.702L465.678 358.311L462.782 360.574L459.886 362.837L462.366 360.433L464.846 358.029L462.898 356.037C461.826 354.942 460.534 353.103 460.026 351.949C459.516 350.789 458.408 349.814 457.549 349.766C456.081 349.685 449.588 345.525 449.588 344.666C449.588 344.446 450.361 344.808 451.304 345.471C452.248 346.133 454.05 347.335 455.309 348.14L457.597 349.605L455.099 347.16C448.288 340.496 426.012 328.8 406.49 321.637C394.081 317.085 370.09 310.266 369.412 311.1C369.157 311.414 368.035 315.836 366.92 320.926C359.753 353.635 345.888 382.861 327.61 403.794C324.426 407.441 322.592 409.718 323.536 408.853C326.15 406.458 325.583 407.729 322.802 410.496C321.455 411.836 320.811 412.279 321.371 411.481C323.047 409.089 321.577 409.816 316.995 413.646C314.614 415.636 310.672 418.65 308.235 420.344C305.797 422.038 303.945 423.865 304.119 424.403C304.607 425.914 313.266 425.294 325.915 422.842C332.054 421.652 339.21 420.263 341.82 419.755C346.711 418.802 348.409 419.254 346.639 421.04C345.82 421.866 345.748 421.824 346.269 420.819C346.624 420.134 344.014 422.503 340.47 426.083C329.706 436.953 318.014 443.613 303.539 447.116C296.873 448.73 278.776 448.942 271.857 447.489C259.315 444.854 246.994 439.362 239.862 433.227C237.674 431.345 235.723 429.98 235.528 430.192C235.041 430.721 240.003 434.916 245.54 438.656C248.058 440.356 249.461 441.509 248.659 441.218C245.886 440.21 237.138 433.375 234.099 429.841C232.42 427.89 231.648 426.787 232.382 427.392C234.748 429.341 233.822 426.873 231.333 424.594C230.021 423.392 229.141 422.201 229.377 421.944C229.613 421.689 232.659 421.89 236.147 422.393C239.636 422.895 246.179 423.551 250.689 423.849L258.889 424.391V361.888V299.385L238.675 299.843L218.461 300.301V296.77V293.239L224.297 292.703C227.507 292.408 233.256 292.164 237.074 292.162C240.891 292.159 247.361 291.916 251.452 291.621L258.889 291.085V256.35V221.615L249.927 221.611C244.997 221.61 236.018 221.362 229.972 221.062C221.705 220.65 219.116 220.754 219.528 221.479C219.83 222.01 219.705 222.445 219.25 222.445C218.795 222.445 218.089 221.487 217.679 220.316C216.769 217.708 216.785 215.567 217.698 217.879C218.222 219.206 218.365 218.905 218.408 216.385L218.461 213.229L238.675 213.815L258.889 214.4L258.878 152.643C258.871 118.678 258.594 90.4212 258.262 89.8518C257.783 89.0301 255.708 89.0783 248.167 90.0859C237.674 91.4878 220.805 94.4866 219.868 95.1166C218.599 95.9707 218.238 90.574 219.087 83.4175C220.306 73.1378 221.216 70.4543 225.399 64.8052C227.393 62.1135 228.793 59.6301 228.51 59.2881C228.227 58.9453 228.382 58.9046 228.854 59.1985C229.326 59.4915 231.214 59.1844 233.05 58.5154C234.885 57.8472 240.955 56.9649 246.538 56.5549C255.55 55.8933 256.898 55.5962 258.552 53.9055L260.415 52.0014V28.3285V4.65557L258.365 2.3282L256.316 0L163.588 0.143593C112.588 0.222445 68.6604 0.502161 65.9708 0.766106ZM309.293 2.14891L306.945 4.29783L306.954 26.0119C306.963 50.6402 307.227 53.6058 309.529 54.9679C310.415 55.4924 316.118 56.1639 322.201 56.4611C330.046 56.8437 333.944 57.3866 335.607 58.327C338.611 60.026 343.402 65.7871 344.767 69.3421C346.094 72.7983 347.252 100.432 346.07 100.432C345.641 100.432 341.554 99.3655 336.987 98.0615C326.803 95.1548 310.126 91.7144 309.503 92.3925C308.567 93.4109 310.037 95.4627 314.342 99.1455C316.777 101.228 319.2 102.754 319.727 102.536C320.254 102.319 321.501 103.531 322.498 105.229C323.496 106.928 327.22 111.391 330.774 115.147C334.328 118.902 337.098 122.127 336.928 122.311C336.759 122.496 338.136 125.025 339.99 127.932C350.491 144.405 362.085 173.81 366.874 196.12C367.687 199.91 368.601 202.438 369.085 202.236C369.538 202.046 373.258 200.899 377.351 199.685C387.799 196.588 405.666 189.782 416.025 184.952C429.629 178.61 443.104 170.383 443.104 168.422C443.104 167.937 445.309 165.819 448.002 163.716C450.696 161.613 452.68 160.28 452.41 160.755C452.14 161.23 450.022 163.041 447.702 164.779C445.383 166.517 443.648 168.117 443.847 168.332C444.763 169.33 458.742 157.482 458.742 155.708C458.742 154.176 454.936 150.461 454.897 151.956C454.88 152.606 454.385 152.174 453.797 150.998C453.208 149.821 451.342 147.859 449.648 146.64C446.247 144.191 445.408 143.901 446.233 145.46C446.551 146.063 446.49 146.208 446.087 145.807C445.705 145.426 445.393 144.71 445.393 144.215C445.393 143.721 444.916 143.143 444.333 142.932C443.627 142.676 443.475 142.903 443.879 143.614C444.279 144.318 444.181 144.475 443.591 144.079C443.1 143.748 442.887 143.146 443.118 142.739C443.691 141.73 426.358 130.65 413.564 123.846L403.093 118.277L403.121 107.072C403.163 90.0145 404.238 71.9799 405.349 69.6799C405.89 68.5619 407.601 65.9656 409.152 63.9113C410.702 61.857 412.358 59.4292 412.831 58.5162C413.303 57.6032 413.701 57.3359 413.714 57.9227C413.731 58.737 414.104 58.776 415.284 58.0879C416.136 57.5924 422.229 56.9715 428.824 56.7093C440.347 56.2503 440.898 56.1482 442.914 54.1063L445.011 51.9806V28.2206V4.46051L442.872 2.23026L440.733 0H376.186H311.639L309.293 2.14891ZM259.517 17.6843L259.382 29.4656L258.945 17.3092C258.622 8.32839 258.209 4.74023 257.364 3.57322C256.734 2.7042 256.992 2.87352 257.936 3.94839C259.566 5.80431 259.645 6.49654 259.517 17.6843ZM312.222 1.89493C312.047 2.02441 311.217 2.67764 310.378 3.34746C308.967 4.47379 308.931 4.45636 309.899 3.11256C310.475 2.31409 311.305 1.66003 311.743 1.66003C312.18 1.66003 312.396 1.76545 312.222 1.89493ZM442.414 3.40556C443.763 5.02658 443.871 6.72977 443.921 27.2685L443.974 49.386L443.539 27.1084C443.107 4.96018 443.094 4.82157 441.303 3.24537C440.313 2.37385 439.831 1.66003 440.232 1.66003C440.633 1.66003 441.615 2.44523 442.414 3.40556ZM430.518 28.5426V40.4857L416.979 40.8244C405.037 41.1224 402.997 41.3797 399.697 43.0015C397.64 44.0133 396.152 45.0533 396.391 45.3131C396.63 45.5729 397.518 45.382 398.366 44.8882C400.661 43.5518 401.456 43.8606 399.244 45.2293C398.195 45.8775 396.809 46.2378 396.163 46.0294C395.518 45.8211 393.802 46.813 392.349 48.2331C390.897 49.6533 390.31 50.3538 391.044 49.7911C393.076 48.2331 392.636 49.2615 390.304 51.5241C389.163 52.6305 388.69 52.8829 389.253 52.0836C389.846 51.2428 389.944 50.631 389.485 50.631C388.4 50.631 381.971 60.0634 379.632 65.085C376.598 71.6014 375.537 75.3589 376.601 75.8304C377.239 76.1126 377.213 76.2495 376.512 76.296C375.965 76.3317 374.991 74.9605 374.345 73.249C371.736 66.33 368.344 59.4848 366.406 57.228C365.279 55.9141 364.495 54.6873 364.667 54.5014C365.392 53.7121 356.778 46.3108 352.416 43.9735C348.904 42.0927 345.897 41.2294 340.848 40.6509C330.881 39.5105 321.664 39.6167 321.114 40.8783C320.864 41.4494 320.836 40.6551 321.05 39.1146C321.264 37.574 321.439 31.8776 321.439 26.4568V16.6003H375.978H430.518V28.5426ZM245.922 29.0506V40.6708L233.526 40.6758C219.73 40.6808 208.837 42.1416 202.002 44.9014C197.357 46.7773 190.589 51.2892 191.284 52.0462C191.499 52.2803 192.639 51.7458 193.817 50.8576C196.963 48.4863 198.534 47.7434 196.39 49.64C193.702 52.0188 189.92 54.3512 190.551 53.2406C190.848 52.7185 190.756 52.2911 190.348 52.2911C189.049 52.2911 183.299 60.0169 183.717 61.2013C183.938 61.8263 183.778 62.1093 183.364 61.8305C182.685 61.3739 182.28 62.4712 182.52 64.1188C182.569 64.4608 182.225 64.6475 181.756 64.5338C180.802 64.3014 176.583 72.697 174.144 79.6816C173.266 82.1924 171.689 88.1686 170.637 92.9619C167.937 105.271 167.735 115.924 167.735 246.515C167.735 366.921 167.626 363.367 171.896 382.298C175.922 400.146 183.546 421.372 185.074 418.986C185.543 418.255 185.624 418.45 185.331 419.6C184.771 421.798 192.281 434.499 197.831 440.739C200.063 443.25 201.243 444.37 200.45 443.229L199.01 441.154L200.708 442.718C201.642 443.578 202.249 444.559 202.056 444.899C201.496 445.884 208.707 452.799 214.665 456.994C226.211 465.122 239.113 470.205 253.55 472.316C257.116 472.838 266.384 473.256 274.145 473.245C287.378 473.226 288.815 473.067 297.213 470.694C306.166 468.163 319.368 463.166 322.964 460.946L324.871 459.769L322.964 460.269C321.497 460.653 321.321 460.569 322.201 459.902C322.831 459.427 323.923 459.233 324.628 459.471C325.854 459.886 338.22 453.704 338.22 452.676C338.22 452.404 337.619 452.409 336.885 452.687C335.809 453.096 335.845 452.94 337.076 451.885C337.915 451.167 339.288 450.177 340.127 449.687L341.653 448.798L340.127 450.732L338.601 452.668L341.653 450.775L344.704 448.882L341.45 452.073C339.661 453.828 338.202 455.674 338.209 456.173C338.215 456.673 337.448 457.793 336.504 458.663L334.787 460.244L336.313 458.256L337.839 456.268L335.956 457.344C334.921 457.937 332.193 459.731 329.894 461.33C323.826 465.554 312.946 470.992 304.688 473.929C292.784 478.161 285.597 479.182 267.28 479.242C248.81 479.302 240.516 478 225.326 472.653C205.767 465.768 187.222 451.694 175.748 435.027C166.805 422.037 159.604 402.743 155.005 379.452L152.602 367.283L152.08 239.46C151.709 148.754 151.296 109.651 150.66 104.796C148.156 85.6926 140.049 65.8984 130.358 55.2268C125.221 49.5703 120.964 46.837 112.051 43.473C106.258 41.2867 105.108 41.1531 89.3581 40.8393L72.7673 40.5082V28.9693V17.4304H159.345H245.922V29.0506ZM309.13 48.7079C309.253 53.81 309.259 53.8133 319.437 54.8143L326.397 55.4983L319.124 55.265C309.169 54.9446 308.815 54.6716 308.205 46.8088C307.932 43.2953 307.768 36.8353 307.842 32.4528L307.975 24.4855L308.502 34.4457C308.791 39.9238 309.074 46.3415 309.13 48.7079ZM320.47 33.8049C320.304 35.5264 320.167 34.3212 320.163 31.1256C320.16 27.9301 320.295 26.5207 320.464 27.9948C320.632 29.4681 320.635 32.0826 320.47 33.8049ZM333.094 42.1076C331.324 42.2811 328.234 42.2836 326.229 42.1117C324.224 41.9408 325.672 41.798 329.448 41.7955C333.224 41.793 334.864 41.9333 333.094 42.1076ZM428.786 42.0022C428.533 42.2777 427.874 42.3076 427.324 42.0678C426.716 41.803 426.896 41.6063 427.785 41.5664C428.589 41.5307 429.039 41.7266 428.786 42.0022ZM106.712 43.1609C107.718 43.6315 107.848 43.8896 107.093 43.9195C106.464 43.9453 105.434 43.6033 104.805 43.1609C103.41 42.1806 104.615 42.1806 106.712 43.1609ZM347.374 43.1609C348.003 43.6033 348.175 43.9652 347.755 43.9652C347.335 43.9652 346.477 43.6033 345.848 43.1609C345.219 42.7185 345.047 42.3566 345.467 42.3566C345.886 42.3566 346.744 42.7185 347.374 43.1609ZM406.299 42.8803C405.775 43.1111 404.917 43.1111 404.392 42.8803C403.868 42.6504 404.297 42.462 405.346 42.462C406.395 42.462 406.824 42.6504 406.299 42.8803ZM114.353 45.6733C114.556 46.0327 114.031 46.129 113.185 45.8883C112.338 45.6476 111.479 45.1571 111.276 44.7985C111.072 44.4391 111.597 44.3428 112.443 44.5835C113.29 44.8242 114.149 45.3148 114.353 45.6733ZM354.175 46.178C355.222 47.1748 352.739 46.2494 351.524 45.1903C350.128 43.9726 350.152 43.956 351.95 44.8873C352.999 45.431 354.001 46.012 354.175 46.178ZM101.547 45.3222C101.294 45.5978 100.635 45.6277 100.085 45.3878C99.4766 45.123 99.6574 44.9263 100.546 44.8865C101.35 44.8508 101.8 45.0467 101.547 45.3222ZM105.31 47.7202C113.052 49.3254 119.752 52.9592 125.329 58.5776C127.788 61.0544 130.123 63.0813 130.518 63.0813C131.332 63.0813 134.047 66.1831 134.877 68.0614C135.179 68.7462 134.545 68.1859 133.468 66.8164C130.855 63.493 130.985 64.6251 133.765 69.3952C138.806 78.0448 143.736 94.2003 145.136 106.657C145.927 113.697 146.652 211.034 146.707 317.482C146.718 341.101 147.067 361.111 147.539 365.207C148.868 376.768 152.03 392.357 155.214 403.049C158.16 412.944 165.49 430.593 166.292 429.721C166.519 429.475 166.155 428.118 165.484 426.706C164.812 425.294 164.437 424.139 164.649 424.139C164.861 424.139 165.754 425.672 166.632 427.546C167.51 429.419 167.86 430.704 167.41 430.402C165.721 429.266 166.707 431.528 170.385 437.226C172.471 440.459 174.805 443.32 175.572 443.584C176.34 443.849 178.322 445.652 179.979 447.59L182.991 451.114L179.763 447.848C177.988 446.052 176.34 444.794 176.102 445.054C175.635 445.561 186.703 456.714 188.197 457.241C188.69 457.415 188.064 456.294 186.805 454.751L184.517 451.944L186.968 454.354C188.317 455.679 189.264 457.038 189.074 457.374C188.569 458.264 193.924 462.503 194.805 461.91C195.215 461.635 196.837 462.361 198.41 463.525C199.984 464.688 200.987 465.64 200.64 465.64C200.292 465.64 198.992 464.852 197.749 463.889C196.506 462.926 195.325 462.318 195.123 462.537C194.564 463.145 201.271 467.611 208.926 471.727C244.732 490.976 295.437 489.774 328.587 468.889C331.997 466.74 334.709 464.595 334.614 464.121C334.518 463.648 335.891 462.05 337.665 460.57C339.438 459.091 342.09 456.731 343.558 455.327L346.226 452.774L343.988 455.472C342.756 456.956 342.092 458.169 342.512 458.169C343.478 458.169 347.52 453.626 347.029 453.091C346.828 452.872 351.159 447.856 356.654 441.943C362.15 436.031 366.373 431.754 366.04 432.439C365.707 433.124 366.347 432.78 367.462 431.674C369.661 429.495 369.624 428.162 367.415 430.024C366.282 430.98 366.299 430.863 367.52 429.307C368.321 428.285 369.148 427.635 369.357 427.861C369.565 428.089 370.196 427.858 370.759 427.35C372.335 425.927 371.98 427.231 369.876 430.6C367.667 434.138 367.401 435.629 369.271 433.993C369.987 433.367 369.604 434.255 368.418 435.966C367.232 437.679 366.089 439.079 365.878 439.079C365.667 439.079 365.921 438.519 366.443 437.834C366.982 437.128 367.06 436.589 366.624 436.589C365.873 436.589 363.392 440.147 363.392 441.226C363.392 441.527 363.986 441.259 364.712 440.633C365.438 440.007 365.181 440.659 364.14 442.084C363.099 443.508 362.05 444.553 361.807 444.405C361.565 444.258 359.333 446.401 356.849 449.169C348.117 458.893 336.249 470.123 330.038 474.539C322.16 480.138 308.658 487.215 299.699 490.44C291.193 493.502 283.722 495.174 273.492 496.306C238.857 500.138 204.854 491.149 176.266 470.606C171.769 467.373 167.792 464.93 167.428 465.175C167.064 465.42 165.268 464.091 163.437 462.222C160.794 459.526 160.703 459.356 162.995 461.402C168.616 466.421 166.875 463.8 159.756 456.528C155.788 452.474 152.324 449.302 152.059 449.481C151.794 449.658 150.407 448.435 148.977 446.761C147.547 445.086 146.977 444.213 147.712 444.819C150.041 446.744 149.189 445.029 143.707 436.759C132.04 419.16 119.82 386.953 116.558 365.207C115.097 355.471 114.087 272.781 113.978 153.968L113.906 75.1165L111.725 69.1022C108.808 61.0561 105.516 55.6551 100.474 50.641C95.7023 45.8958 95.9083 45.7713 105.31 47.7202ZM111.288 47.311C112.295 47.7816 112.424 48.0397 111.67 48.0696C111.041 48.0953 110.011 47.7534 109.382 47.311C107.987 46.3307 109.192 46.3307 111.288 47.311ZM209.308 47.311C208.678 47.7534 207.82 48.1153 207.401 48.1153C206.981 48.1153 207.153 47.7534 207.782 47.311C208.411 46.8686 209.27 46.5067 209.689 46.5067C210.109 46.5067 209.937 46.8686 209.308 47.311ZM222.275 47.677C222.275 48.3352 221.879 49.1395 221.394 49.4649C220.817 49.8533 220.722 49.6906 221.12 48.9918C221.518 48.2887 221.375 48.0522 220.698 48.2979C220.133 48.5029 219.142 49.6168 218.494 50.7738C217.846 51.9308 216.459 54.4201 215.41 56.305C214.361 58.19 213.056 59.9214 212.51 60.1522C211.305 60.6618 211.802 59.6533 214.867 55.3655C216.106 53.6324 216.94 52.0197 216.721 51.7814C216.122 51.1291 209.524 61.5101 207.725 65.9341C206.637 68.6092 205.941 72.8091 205.478 79.4932C204.43 94.6244 203.664 360.076 204.613 379.318C205.695 401.244 208.557 412.659 216.715 427.582C220.477 434.462 226.423 442.399 227.817 442.399C228.282 442.399 227.654 441.186 226.423 439.702L224.182 437.004L226.634 439.414C227.982 440.739 228.925 442.106 228.728 442.453C227.793 444.099 243.394 454.336 245.629 453.543C246.643 453.183 246.774 453.261 246.076 453.807C244.926 454.707 254.229 458.863 263.466 461.578C273.446 464.512 292.646 464.64 303.894 461.849C308.177 460.786 303.168 463.148 296.585 465.295C290.628 467.238 288.072 467.564 276.02 467.92C265.401 468.232 260.35 468.004 253.899 466.922C239.684 464.536 226.245 458.892 215.981 450.997C211.45 447.513 210.355 447.425 213.884 450.829L216.554 453.403L213.884 451.28C212.416 450.112 211.293 448.78 211.389 448.32C211.485 447.86 209.47 445.685 206.91 443.488C200.696 438.155 197.983 435.163 194.941 430.289C192.326 426.099 193.435 427.323 198.682 434.418C203.103 440.397 202.327 438.09 197.622 431.268C185.749 414.053 179.152 395.655 174.588 367.024L172.693 355.145L172.7 239.617C172.704 170.315 173.015 119.445 173.475 112.486C174.641 94.9 178.014 81.96 184.66 69.582C187.299 64.6675 187.702 63.4664 186.424 64.3263C185.088 65.2244 185.602 64.2242 187.318 62.5874C188.383 61.5707 188.752 61.4503 188.35 62.2513C188.007 62.936 189.063 62.1409 190.698 60.4833C198.484 52.5924 204.735 49.1827 214.647 47.4205C220.967 46.2975 222.275 46.3415 222.275 47.677ZM124.985 51.4021C125.233 51.8387 123.884 51.2519 121.986 50.0973C120.088 48.9436 118.535 47.8364 118.535 47.638C118.535 47.0553 124.49 50.5306 124.985 51.4021ZM354.134 52.1857C359.145 55.7149 363.343 61.3598 366.778 69.1886C370.611 77.922 371.817 83.8002 372.32 96.2106C372.699 105.547 372.599 107.272 371.705 106.899C371.119 106.654 368.712 105.985 366.356 105.411L362.074 104.369L361.589 98.1246C361.322 94.6908 361.102 88.4831 361.098 84.3289C361.09 74.1272 359.902 66.8595 357.437 61.9284C355.163 57.3816 349.062 49.5935 348.217 50.1612C347.921 50.3605 347.269 49.8102 346.769 48.9378C345.917 47.4521 345.991 47.4139 347.951 48.3277C349.102 48.8648 351.884 50.6003 354.134 52.1857ZM355.426 50.7082C356.059 51.8213 353.886 50.6211 351.569 48.5767C350.153 47.3276 350.218 47.3226 352.474 48.5095C353.811 49.2134 355.14 50.2028 355.426 50.7082ZM400.928 50.8701C396.742 55.5115 396.767 56.911 400.96 52.6671L404.202 49.386L401.217 52.8796C399.576 54.8002 397.957 56.1872 397.62 55.9597C397.282 55.7332 395.965 57.1118 394.693 59.0242C392.314 62.5974 391.706 64.4616 393.26 63.4175C393.809 63.0473 393.932 63.19 393.588 63.7968C393.284 64.3313 392.748 64.5753 392.398 64.3396C392.047 64.103 391.192 65.6842 390.5 67.8531C388.986 72.5925 387.297 103.851 388.299 108.589C388.821 111.057 389.024 109.821 389.365 102.092L389.786 92.5469L389.938 102.3C390.114 113.556 390.444 113.194 382.61 110.316L377.885 108.58V102.202C377.885 87.3842 380.821 73.7171 385.977 64.5355C387.451 61.911 388.468 59.4325 388.237 59.0267C388.007 58.6208 388.395 57.78 389.101 57.1575C390.204 56.1847 390.291 56.2005 389.732 57.2712C389.374 57.9559 390.031 57.5824 391.192 56.4412C392.353 55.2999 393.629 53.4448 394.029 52.3193C394.496 51.0012 394.95 50.6153 395.302 51.2361C395.687 51.9134 396.98 51.4768 399.644 49.7695C401.731 48.4332 403.596 47.3325 403.788 47.3251C403.981 47.3176 402.694 48.9129 400.928 50.8701ZM59.5656 51.2378C59.3719 52.0454 59.201 51.5856 59.1858 50.216C59.1705 48.8465 59.3284 48.1858 59.5374 48.7477C59.7464 49.3097 59.7594 50.4302 59.5656 51.2378ZM119.235 51.1581C120.281 52.155 117.798 51.2295 116.583 50.1704C115.187 48.9527 115.212 48.9361 117.009 49.8674C118.058 50.4111 119.06 50.9921 119.235 51.1581ZM203.205 49.2972C203.205 49.4765 202.673 49.8458 202.021 50.1181C201.343 50.4011 201.037 50.2617 201.304 49.7919C201.751 49.0025 203.205 48.6249 203.205 49.2972ZM257.291 53.4149C255.615 55.094 255.588 55.0974 256.82 53.4705C257.538 52.5218 258.154 51.2145 258.187 50.5655C258.236 49.6101 258.325 49.5993 258.658 50.5099C258.885 51.1282 258.269 52.4355 257.291 53.4149ZM360.722 51.4611C361.481 52.3741 361.932 53.1211 361.722 53.1211C361.512 53.1211 360.719 52.3741 359.96 51.4611C359.201 50.548 358.751 49.801 358.96 49.801C359.17 49.801 359.964 50.548 360.722 51.4611ZM443.486 51.046C443.486 53.571 440.594 55.6169 437.193 55.4983C435.317 55.4327 434.754 55.2476 435.858 55.0583C440.329 54.2922 441.295 53.7967 442.109 51.8528C443.094 49.4997 443.486 49.2706 443.486 51.046ZM105.809 59.1238C107.114 61.7441 107.113 61.7657 105.792 59.7612C105.039 58.62 103.064 56.0054 101.402 53.9511L98.3805 50.216L101.42 53.3137C103.092 55.0177 105.067 57.6322 105.809 59.1238ZM129.214 55.1961C130.638 56.7939 131.63 58.1012 131.42 58.1012C131.21 58.1012 129.875 56.7939 128.451 55.1961C127.028 53.5983 126.036 52.2911 126.245 52.2911C126.455 52.2911 127.791 53.5983 129.214 55.1961ZM69.8878 54.7869L76.9627 55.4617L69.5621 55.3289C64.6192 55.2401 61.8334 54.8351 61.1713 54.1096C60.3582 53.2165 60.4162 53.1203 61.497 53.5676C62.2209 53.8673 65.9968 54.4167 69.8878 54.7869ZM359.676 54.5736C360.624 55.89 360.597 55.9191 359.388 54.8874C358.117 53.8025 357.713 53.1211 358.341 53.1211C358.499 53.1211 359.1 53.7743 359.676 54.5736ZM126.163 56.8562C127.586 58.4539 128.579 59.7612 128.369 59.7612C128.159 59.7612 126.824 58.4539 125.4 56.8562C123.977 55.2584 122.984 53.9511 123.194 53.9511C123.404 53.9511 124.74 55.2584 126.163 56.8562ZM352.048 55.4036C352.996 56.72 352.969 56.7491 351.76 55.7174C350.489 54.6325 350.085 53.9511 350.713 53.9511C350.871 53.9511 351.472 54.6043 352.048 55.4036ZM241.917 55.353C241.183 55.5622 239.981 55.5622 239.247 55.353C238.514 55.1447 239.114 54.9737 240.582 54.9737C242.051 54.9737 242.651 55.1447 241.917 55.353ZM251.817 55.2825C251.564 55.558 250.906 55.5879 250.356 55.348C249.747 55.0832 249.928 54.8865 250.817 54.8467C251.621 54.811 252.071 55.0069 251.817 55.2825ZM387.802 55.0675C387.802 55.2252 387.029 56.0652 386.085 56.935L384.369 58.5162L385.822 56.6487C387.188 54.894 387.802 54.4035 387.802 55.0675ZM422.827 55.0808C422.652 55.2451 420.964 55.602 419.076 55.8743C416.784 56.2038 416.151 56.1233 417.169 55.6327C418.626 54.9305 423.489 54.4566 422.827 55.0808ZM86.8989 57.111C86.6647 57.3666 86.0491 57.1118 85.5312 56.5441C84.7836 55.724 84.8714 55.6294 85.9584 56.0793C86.7105 56.3914 87.1338 56.8553 86.8989 57.111ZM188.712 55.9249C188.712 56.0967 188.111 56.7508 187.377 57.3774C186.168 58.4091 186.141 58.3801 187.089 57.0637C188.086 55.6809 188.712 55.2418 188.712 55.9249ZM237.468 55.9066C237.293 56.0693 235.948 56.4428 234.48 56.7358C232.602 57.111 232.15 57.0272 232.954 56.4528C233.989 55.7149 238.224 55.2028 237.468 55.9066ZM339.267 57.5144C339.531 57.2288 339.746 57.5036 339.746 58.1253C339.746 58.7469 340.69 60.3829 341.843 61.7607C343.715 63.996 343.611 63.9561 340.883 61.3914C339.201 59.8102 336.97 57.8538 335.925 57.0446C334.025 55.5738 334.025 55.5738 336.407 56.8047C337.717 57.4812 339.004 57.8007 339.267 57.5144ZM397.718 57.5849C397.718 57.7567 397.117 58.4108 396.383 59.0374C395.173 60.0692 395.147 60.0401 396.095 58.7237C397.092 57.3409 397.718 56.9018 397.718 57.5849ZM411.448 59.2018C411.448 59.3504 410.505 60.3771 409.351 61.4843L407.253 63.4963L409.102 61.2138C410.83 59.0806 411.448 58.5502 411.448 59.2018ZM227.615 60.0476C227.615 60.2053 226.843 61.0453 225.898 61.9151L224.182 63.4963L225.635 61.6288C227.001 59.8741 227.615 59.3836 227.615 60.0476ZM139.777 71.335C141.519 74.8924 142.938 78.1328 142.932 78.5354C142.925 78.9371 141.384 76.1549 139.507 72.3518C137.631 68.5486 135.377 64.2533 134.499 62.8066L132.902 60.1762L134.756 62.521C135.775 63.8109 138.034 67.7767 139.777 71.335ZM367.304 65.9864L368.053 67.6464L366.811 65.9864C366.128 65.0733 365.232 63.5793 364.82 62.6663L364.071 61.0063L365.313 62.6663C365.996 63.5793 366.892 65.0733 367.304 65.9864ZM109.037 64.8185C109.708 66.2304 110.121 67.5327 109.956 67.7128C109.79 67.8929 109.084 66.7383 108.386 65.1455C106.818 61.5665 107.361 61.2926 109.037 64.8185ZM381.2 65.192C380.951 65.8967 380.584 66.2951 380.384 66.0777C380.184 65.8602 380.247 65.2833 380.524 64.7969C381.276 63.4722 381.715 63.7295 381.2 65.192ZM407.634 64.2251C407.634 64.3969 407.033 65.0509 406.299 65.6776C405.09 66.7093 405.063 66.6802 406.011 65.3638C407.008 63.981 407.634 63.542 407.634 64.2251ZM222.1 67.5866C221.158 69.152 220.259 70.2941 220.104 70.1248C219.788 69.782 222.948 64.7413 223.478 64.7413C223.663 64.7413 223.043 66.022 222.1 67.5866ZM370.257 65.5713C370.257 66.0279 370.106 66.4014 369.921 66.4014C369.736 66.4014 369.373 66.0279 369.113 65.5713C368.854 65.1148 369.006 64.7413 369.45 64.7413C369.894 64.7413 370.257 65.1148 370.257 65.5713ZM181.347 66.8521C181.099 67.5567 180.732 67.9552 180.532 67.7377C180.332 67.5202 180.395 66.9434 180.672 66.457C181.424 65.1323 181.863 65.3896 181.347 66.8521ZM383.085 67.6497C382.606 68.7935 382.071 69.572 381.895 69.3811C381.538 68.9935 383.085 65.5713 383.617 65.5713C383.803 65.5713 383.564 66.5068 383.085 67.6497ZM208.638 68.6217C207.739 70.3041 207.522 69.7654 208.258 67.6788C208.519 66.9367 208.894 66.5043 209.09 66.7184C209.287 66.9317 209.083 67.7883 208.638 68.6217ZM358.668 68.498C358.433 68.7536 358.007 68.293 357.72 67.4746C357.307 66.2918 357.394 66.1963 358.147 67.0098C358.669 67.5733 358.903 68.2432 358.668 68.498ZM179.559 70.5514C179.559 71.008 179.195 71.3815 178.751 71.3815C178.307 71.3815 178.155 71.008 178.414 70.5514C178.674 70.0949 179.037 69.7214 179.222 69.7214C179.408 69.7214 179.559 70.0949 179.559 70.5514ZM181.707 72.6298C181.228 73.7736 180.693 74.5521 180.517 74.3612C180.16 73.9736 181.707 70.5514 182.239 70.5514C182.425 70.5514 182.186 71.4869 181.707 72.6298ZM347.132 72.3675C346.888 73.0291 346.708 72.8323 346.671 71.8654C346.638 70.9905 346.818 70.5008 347.072 70.7764C347.325 71.052 347.352 71.7683 347.132 72.3675ZM139.317 75.324C139.516 76.5799 139.919 78.3536 140.215 79.2666C140.536 80.256 140.31 80.0875 139.655 78.8516C138.076 75.8669 137.383 73.0415 138.23 73.0415C138.63 73.0415 139.119 74.0682 139.317 75.324ZM177.142 76.4039C176.696 77.7967 176.189 78.7827 176.016 78.5943C175.639 78.1835 177.078 73.8715 177.593 73.8715C177.791 73.8715 177.588 75.0111 177.142 76.4039ZM402.816 75.6876C402.572 76.3491 402.392 76.1524 402.355 75.1854C402.322 74.3106 402.502 73.8209 402.756 74.0965C403.009 74.372 403.036 75.0883 402.816 75.6876ZM112.175 78.2291C111.964 78.8002 111.79 78.3329 111.79 77.1916C111.79 76.0503 111.964 75.5838 112.175 76.1541C112.387 76.7251 112.387 77.6589 112.175 78.2291ZM402.061 80.2884C401.867 81.096 401.696 80.6362 401.681 79.2666C401.665 77.8971 401.823 77.2364 402.032 77.7983C402.241 78.3603 402.254 79.4808 402.061 80.2884ZM360.144 93.9671C359.995 96.8381 359.871 94.7049 359.87 89.2268C359.868 83.7487 359.99 81.3998 360.141 84.0069C360.292 86.6139 360.293 91.096 360.144 93.9671ZM377.882 83.5927C377.051 85.0037 377.029 85.0012 377.446 83.5562C377.688 82.7203 377.913 81.5998 377.946 81.0661C377.989 80.3664 378.11 80.3764 378.381 81.1026C378.587 81.6563 378.363 82.7768 377.882 83.5927ZM172.69 90.2328C171.859 91.6438 171.837 91.6413 172.254 90.1963C172.496 89.3605 172.721 88.2399 172.754 87.7062C172.797 87.0065 172.919 87.0165 173.189 87.7428C173.395 88.2964 173.171 89.4169 172.69 90.2328ZM175.503 89.7979C175.26 90.4594 175.079 90.2627 175.042 89.2957C175.009 88.4209 175.189 87.9312 175.443 88.2067C175.696 88.4823 175.723 89.1986 175.503 89.7979ZM266.517 151.468V214.144H272.154C286.379 214.144 320.471 211.252 336.694 208.669C348.065 206.858 359.744 204.336 360.484 203.531C361.23 202.719 357.058 185.802 353.072 173.474C349.037 160.991 340.503 142.061 334.559 132.407C331.748 127.841 326.53 120.9 322.964 116.983C315.415 108.691 305.805 101.017 303.826 101.701C303.095 101.953 302.279 101.775 302.012 101.305C301.723 100.797 302.006 100.651 302.71 100.945C303.362 101.217 303.894 101.218 303.894 100.948C303.894 100.09 295.021 95.5424 289.196 93.4151C284.246 91.6065 280.509 90.813 269.378 89.2052L266.517 88.7919V151.468ZM147.364 93.4964C147.142 94.6377 146.95 94.4285 146.625 92.6913C146.34 91.1765 146.447 90.6312 146.925 91.1508C147.331 91.5932 147.53 92.649 147.364 93.4964ZM269.768 91.0562L268.061 91.4148L267.852 122.276L267.642 153.138L267.461 121.805L267.28 90.4719L269.378 90.5847C271.163 90.681 271.221 90.7516 269.768 91.0562ZM145.125 95.452C145.125 96.2363 144.884 96.0836 144.47 95.0369C144.109 94.1239 143.815 92.8167 143.815 92.1319C143.815 91.3475 144.057 91.5002 144.47 92.5469C144.831 93.4599 145.125 94.7672 145.125 95.452ZM248.766 91.8032C248.513 92.0788 247.855 92.1086 247.305 91.8688C246.696 91.604 246.877 91.4073 247.765 91.3674C248.569 91.3317 249.02 91.5276 248.766 91.8032ZM278.515 91.8032C278.262 92.0788 277.604 92.1086 277.054 91.8688C276.445 91.604 276.626 91.4073 277.515 91.3674C278.318 91.3317 278.769 91.5276 278.515 91.8032ZM243.427 92.6332C243.173 92.9088 242.515 92.9387 241.965 92.6988C241.356 92.434 241.537 92.2373 242.426 92.1975C243.23 92.1618 243.68 92.3577 243.427 92.6332ZM287.494 93.9198C288.523 94.3987 288.151 94.4626 286.35 94.1156C284.882 93.8326 283.165 93.2657 282.536 92.8548C281.181 91.9717 285.136 92.8208 287.494 93.9198ZM229.522 94.6219C228.683 95.0145 227.481 95.3349 226.852 95.3349C226.131 95.3349 226.271 95.0718 227.233 94.6219C228.072 94.2293 229.274 93.909 229.903 93.909C230.624 93.909 230.484 94.1721 229.522 94.6219ZM314.016 94.3364C313.499 94.5638 312.47 94.5779 311.727 94.3671C310.985 94.1563 311.408 93.9704 312.666 93.9538C313.925 93.9372 314.532 94.109 314.016 94.3364ZM257.935 157.969C257.815 169.464 257.718 159.82 257.718 136.538C257.718 113.256 257.816 103.851 257.935 115.638C258.055 127.425 258.055 146.474 257.935 157.969ZM326.015 96.282C327.526 96.8082 327.605 96.9468 326.397 96.9468C325.558 96.9468 324.013 96.6472 322.964 96.282C321.454 95.7557 321.374 95.6171 322.583 95.6171C323.422 95.6171 324.966 95.9168 326.015 96.282ZM295.905 97.7818C295.671 98.0375 295.055 97.7826 294.537 97.2149C293.79 96.3949 293.877 96.3002 294.964 96.7501C295.716 97.0622 296.14 97.5262 295.905 97.7818ZM315.434 97.7345C316.402 99.0783 316.366 99.0957 314.955 97.9694C314.116 97.2996 313.287 96.6464 313.111 96.5169C312.936 96.3874 313.152 96.282 313.59 96.282C314.028 96.282 314.858 96.9352 315.434 97.7345ZM335.169 98.772C335.798 99.2144 335.97 99.5763 335.55 99.5763C335.131 99.5763 334.273 99.2144 333.643 98.772C333.014 98.3296 332.842 97.9677 333.262 97.9677C333.681 97.9677 334.54 98.3296 335.169 98.772ZM146.524 104.359C146.331 105.166 146.16 104.707 146.144 103.337C146.129 101.968 146.287 101.307 146.496 101.869C146.705 102.431 146.718 103.551 146.524 104.359ZM149.575 107.679C149.382 108.487 149.211 108.027 149.196 106.657C149.18 105.288 149.338 104.627 149.547 105.189C149.756 105.751 149.769 106.871 149.575 107.679ZM367.588 107.072C368.594 107.543 368.723 107.801 367.969 107.831C367.34 107.857 366.31 107.515 365.681 107.072C364.286 106.092 365.491 106.092 367.588 107.072ZM314.955 110.392C315.714 111.305 316.164 112.052 315.954 112.052C315.744 112.052 314.951 111.305 314.192 110.392C313.433 109.479 312.983 108.732 313.193 108.732C313.402 108.732 314.196 109.479 314.955 110.392ZM330.211 112.052C331.849 113.878 333.019 115.372 332.809 115.372C332.599 115.372 331.086 113.878 329.448 112.052C327.809 110.226 326.64 108.732 326.85 108.732C327.06 108.732 328.572 110.226 330.211 112.052ZM385.908 112.905C386.111 113.264 385.586 113.36 384.74 113.12C383.893 112.879 383.034 112.388 382.831 112.03C382.627 111.67 383.152 111.574 383.998 111.815C384.845 112.056 385.704 112.546 385.908 112.905ZM321.82 117.032C323.886 119.315 325.405 121.182 325.195 121.182C324.986 121.182 323.124 119.315 321.057 117.032C318.991 114.75 317.472 112.882 317.682 112.882C317.892 112.882 319.754 114.75 321.82 117.032ZM417.983 127.628C417.644 127.999 406.872 122.149 406.872 121.594C406.872 121.375 409.434 122.576 412.566 124.262C415.697 125.948 418.136 127.463 417.983 127.628ZM332.774 131.485C336.556 137.457 344.014 151.893 343.316 151.893C343.106 151.893 341.312 148.625 339.329 144.63C335.347 136.611 331.01 129.399 327.333 124.682C325.285 122.056 325.233 121.895 326.987 123.6C328.121 124.701 330.724 128.249 332.774 131.485ZM342.057 127.869C343.216 130.226 342.425 129.841 340.898 127.306C340.177 126.108 339.965 125.382 340.425 125.692C340.886 126.002 341.62 126.981 342.057 127.869ZM426.641 132.5C427.687 133.497 425.205 132.571 423.989 131.512C422.594 130.294 422.618 130.278 424.416 131.209C425.465 131.753 426.466 132.334 426.641 132.5ZM431.682 135.963C431.448 136.218 430.832 135.963 430.315 135.396C429.567 134.576 429.655 134.481 430.742 134.931C431.494 135.243 431.917 135.707 431.682 135.963ZM348.518 139.443C349.168 140.812 349.529 141.933 349.319 141.933C349.11 141.933 348.406 140.812 347.755 139.443C347.104 138.073 346.744 136.953 346.953 136.953C347.163 136.953 347.867 138.073 348.518 139.443ZM150.382 249.15C150.267 268.929 150.174 252.989 150.174 213.729C150.174 174.47 150.267 158.288 150.382 177.769C150.495 197.25 150.495 229.372 150.382 249.15ZM168.689 287.393C168.577 313.072 168.485 292.062 168.485 240.705C168.485 189.348 168.577 168.338 168.689 194.016C168.801 219.696 168.801 261.715 168.689 287.393ZM457.216 156.314C457.216 156.462 456.272 157.489 455.118 158.596L453.021 160.608L454.87 158.326C456.598 156.193 457.216 155.662 457.216 156.314ZM53.0323 160.816C53.9805 162.132 53.9538 162.161 52.744 161.13C51.4731 160.045 51.0696 159.363 51.6974 159.363C51.8553 159.363 52.4564 160.016 53.0323 160.816ZM148.084 171.993C147.93 174.405 147.802 172.644 147.8 168.078C147.798 163.513 147.924 161.54 148.081 163.693C148.238 165.847 148.239 169.582 148.084 171.993ZM457.979 167.19C436.195 184.866 404.753 200.382 375.012 208.134C369.755 209.505 369.489 209.686 369.855 211.654C370.068 212.796 370.808 218.398 371.499 224.105C373.028 236.727 373.263 281.056 371.861 292.166C371.37 296.046 370.895 299.963 370.804 300.87C370.663 302.272 371.49 302.737 376.36 303.995C412.917 313.439 442.753 327.565 465.225 346.066C468.582 348.829 471.68 351.091 472.111 351.093C472.991 351.098 480.779 343.723 479.956 343.664C479.667 343.644 477.844 345.121 475.905 346.947C473.965 348.773 472.142 350.266 471.853 350.265C471.564 350.264 469.783 348.744 467.895 346.888L464.463 343.513L468.171 346.455C472.283 349.716 472.875 349.639 476.619 345.358C477.851 343.95 479.281 342.797 479.796 342.797C482.501 342.797 495.575 322.487 501.436 309.181C508.143 293.957 511.09 281.821 511.828 266.403C512.48 252.784 511.324 243.114 507.55 230.606C504.385 220.121 497.135 203.269 492.326 195.218C490.772 192.617 485.731 186.312 481.123 181.208C476.516 176.104 472.304 171.248 471.765 170.417C471.225 169.587 474.47 173.017 478.974 178.039C483.479 183.06 486.405 186.048 485.477 184.679C482.503 180.294 469.367 164.612 467.261 162.932L465.225 161.31L457.979 167.19ZM359.555 164.758C359.555 165.215 359.222 165.028 358.816 164.343C358.409 163.659 358.076 162.725 358.076 162.268C358.076 161.812 358.409 161.999 358.816 162.683C359.222 163.368 359.555 164.302 359.555 164.758ZM56.8463 164.136C57.7944 165.452 57.7677 165.481 56.5579 164.45C55.2871 163.365 54.8836 162.683 55.5114 162.683C55.6693 162.683 56.2704 163.337 56.8463 164.136ZM468.699 165.796L471.328 168.908L468.505 166.088C465.328 162.914 466.177 162.676 458.551 168.881C456.559 170.503 454.928 171.652 454.928 171.434C454.928 170.908 464.931 162.683 465.571 162.683C465.846 162.683 467.253 164.084 468.699 165.796ZM59.8975 166.626C60.8456 167.942 60.8189 167.971 59.6091 166.94C58.3383 165.855 57.9348 165.173 58.5626 165.173C58.7205 165.173 59.3215 165.827 59.8975 166.626ZM72.373 175.835C72.0618 176.179 61.3254 168.696 61.3254 168.134C61.3254 167.918 63.8693 169.498 66.9785 171.645C70.0876 173.792 72.5149 175.677 72.373 175.835ZM439.29 170.656C437.191 172.416 435.095 173.625 435.095 173.075C435.095 172.589 439.793 169.314 440.435 169.353C440.644 169.366 440.129 169.952 439.29 170.656ZM432.807 174.707C432.807 174.929 430.747 176.241 428.23 177.624C425.713 179.006 423.653 179.952 423.653 179.724C423.653 179.496 425.626 178.201 428.039 176.847C432.948 174.089 432.807 174.153 432.807 174.707ZM364.008 178.89C363.773 179.146 363.347 178.685 363.06 177.867C362.646 176.684 362.733 176.589 363.487 177.402C364.009 177.966 364.243 178.635 364.008 178.89ZM445.839 178.289C442.94 180.508 437.683 183.762 438.528 182.816C439.448 181.785 446.761 176.814 447.3 176.853C447.509 176.868 446.852 177.515 445.839 178.289ZM86.4976 183.873C86.4976 184.101 84.4381 183.157 81.9209 181.774C79.4037 180.391 77.3441 179.073 77.3441 178.845C77.3441 178.616 79.4037 179.561 81.9209 180.944C84.4381 182.327 86.4976 183.645 86.4976 183.873ZM416.788 182.99C416.788 183.201 416.015 183.782 415.072 184.28C413.423 185.149 413.414 185.134 414.836 183.894C416.392 182.538 416.788 182.355 416.788 182.99ZM366.282 186.868C366.091 187.489 365.746 187.112 365.475 185.99C365.144 184.61 365.243 184.285 365.809 184.901C366.253 185.384 366.465 186.268 366.282 186.868ZM412.211 185.42C412.211 185.599 411.679 185.969 411.027 186.241C410.348 186.524 410.043 186.384 410.309 185.915C410.757 185.125 412.211 184.748 412.211 185.42ZM73.5301 188.057C73.5301 188.285 72.8436 188.073 72.0045 187.584C71.1655 187.095 70.479 186.509 70.479 186.281C70.479 186.052 71.1655 186.265 72.0045 186.754C72.8436 187.243 73.5301 187.829 73.5301 188.057ZM356.365 188.528C356.175 189.149 355.829 188.772 355.559 187.65C355.227 186.27 355.326 185.945 355.892 186.561C356.336 187.044 356.548 187.928 356.365 188.528ZM432.807 186.325C432.807 186.545 431.09 187.672 428.993 188.829C426.895 189.986 425.179 190.746 425.179 190.519C425.179 190.291 426.81 189.182 428.802 188.054C432.875 185.746 432.807 185.776 432.807 186.325ZM408.397 187.08C408.397 187.259 407.865 187.629 407.213 187.901C406.534 188.184 406.229 188.045 406.496 187.575C406.943 186.785 408.397 186.408 408.397 187.08ZM404.453 188.832C403.814 189.527 392.907 193.416 392.584 193.064C392.418 192.883 394.793 191.794 397.861 190.641C403.496 188.523 405.155 188.069 404.453 188.832ZM490.768 194.524C490.755 195.514 489.745 194.134 488.422 191.319C487.809 190.014 487.977 190.078 489.211 191.619C490.073 192.696 490.774 194.003 490.768 194.524ZM80.8217 192.195C82.2176 193.412 82.1932 193.429 80.3953 192.498C78.0604 191.287 77.6279 190.904 78.5966 190.904C79.0062 190.904 80.007 191.485 80.8217 192.195ZM357.896 194.759C357.674 195.9 357.481 195.691 357.156 193.953C356.872 192.439 356.979 191.893 357.456 192.413C357.863 192.855 358.061 193.911 357.896 194.759ZM418.313 193.78C418.313 193.992 417.541 194.573 416.597 195.071C414.949 195.94 414.94 195.925 416.361 194.685C417.918 193.328 418.313 193.145 418.313 193.78ZM86.8989 195.724C86.6647 195.979 86.0491 195.725 85.5312 195.157C84.7836 194.337 84.8714 194.242 85.9584 194.692C86.7105 195.004 87.1338 195.468 86.8989 195.724ZM385.513 195.38C385.513 195.559 384.981 195.929 384.329 196.201C383.651 196.484 383.345 196.345 383.612 195.875C384.059 195.086 385.513 194.708 385.513 195.38ZM94.8884 199.653C94.8884 199.881 93.5154 199.305 91.8372 198.374C90.1591 197.443 88.786 196.493 88.786 196.265C88.786 196.037 90.1591 196.613 91.8372 197.544C93.5154 198.475 94.8884 199.425 94.8884 199.653ZM412.974 196.714C412.345 197.156 411.486 197.518 411.067 197.518C410.647 197.518 410.819 197.156 411.448 196.714C412.078 196.272 412.936 195.91 413.355 195.91C413.775 195.91 413.603 196.272 412.974 196.714ZM377.123 198.374C376.493 198.816 375.635 199.178 375.216 199.178C374.796 199.178 374.968 198.816 375.597 198.374C376.226 197.932 377.084 197.57 377.504 197.57C377.924 197.57 377.752 197.932 377.123 198.374ZM407.634 198.7C407.634 198.88 407.102 199.249 406.451 199.521C405.772 199.804 405.466 199.665 405.733 199.195C406.18 198.406 407.634 198.028 407.634 198.7ZM359.578 201.694C359.578 202.607 359.267 203.354 358.887 203.354C358.507 203.354 358.375 202.607 358.594 201.694C358.814 200.781 359.125 200.034 359.286 200.034C359.446 200.034 359.578 200.781 359.578 201.694ZM398.481 202.524C397.852 202.967 396.993 203.328 396.574 203.328C396.154 203.328 396.326 202.967 396.955 202.524C397.585 202.082 398.443 201.72 398.862 201.72C399.282 201.72 399.11 202.082 398.481 202.524ZM353.857 204.184C351.76 205.164 350.556 205.164 351.95 204.184C352.58 203.742 353.609 203.4 354.239 203.426C354.993 203.455 354.863 203.714 353.857 204.184ZM393.485 204.091C393.086 204.496 391.902 205.052 390.853 205.328C389.256 205.746 389.318 205.633 391.234 204.628C393.93 203.216 394.473 203.086 393.485 204.091ZM386.276 206.674C385.647 207.117 384.789 207.479 384.369 207.479C383.95 207.479 384.121 207.117 384.751 206.674C385.38 206.232 386.238 205.87 386.658 205.87C387.077 205.87 386.905 206.232 386.276 206.674ZM332.674 208.006C332.421 208.281 331.762 208.311 331.212 208.071C330.604 207.806 330.784 207.61 331.673 207.57C332.477 207.534 332.927 207.73 332.674 208.006ZM380.937 208.334C380.307 208.777 379.277 209.119 378.648 209.093C377.894 209.063 378.023 208.805 379.03 208.334C381.126 207.354 382.331 207.354 380.937 208.334ZM327.334 208.836C327.081 209.111 326.423 209.141 325.873 208.901C325.264 208.636 325.445 208.44 326.333 208.4C327.137 208.364 327.587 208.56 327.334 208.836ZM319.706 209.666C319.453 209.941 318.795 209.971 318.245 209.731C317.636 209.466 317.817 209.27 318.705 209.23C319.509 209.194 319.959 209.39 319.706 209.666ZM311.315 210.496C311.062 210.771 310.404 210.801 309.854 210.561C309.245 210.296 309.426 210.1 310.315 210.06C311.119 210.024 311.569 210.22 311.315 210.496ZM373.309 210.321C373.309 210.5 372.794 210.862 372.164 211.125C371.535 211.387 371.02 211.24 371.02 210.799C371.02 210.356 371.535 209.994 372.164 209.994C372.794 209.994 373.309 210.141 373.309 210.321ZM351.188 213.781C336.034 217.125 306.974 220.223 280.82 221.283L266.517 221.862V256.481V291.099L271.206 291.633C273.784 291.926 280.221 292.168 285.509 292.169C302.443 292.175 322.846 294.228 349.088 298.565C357.662 299.983 362.89 300.513 363.347 300.012C365.922 297.191 366.768 245.83 364.554 226.679C363.159 214.608 362.43 211.603 360.932 211.75C360.398 211.802 356.012 212.716 351.188 213.781ZM361.806 214.352C361.774 215.379 361.573 215.753 361.362 215.182C361.15 214.612 360.233 214.107 359.324 214.061C357.806 213.986 357.826 213.925 359.578 213.314C360.627 212.949 361.571 212.613 361.676 212.567C361.781 212.522 361.839 213.324 361.806 214.352ZM372.312 218.901C372.118 219.709 371.947 219.249 371.932 217.879C371.917 216.51 372.074 215.849 372.283 216.411C372.492 216.973 372.505 218.094 372.312 218.901ZM333.437 218.796C333.183 219.071 332.525 219.101 331.975 218.861C331.366 218.597 331.547 218.4 332.436 218.36C333.24 218.324 333.69 218.52 333.437 218.796ZM319.706 220.456C319.453 220.731 318.795 220.761 318.245 220.521C317.636 220.257 317.817 220.06 318.705 220.02C319.509 219.984 319.959 220.18 319.706 220.456ZM310.553 221.286C310.299 221.561 309.641 221.591 309.091 221.351C308.482 221.087 308.663 220.89 309.552 220.85C310.356 220.814 310.806 221.01 310.553 221.286ZM363.169 227.622C362.986 228.655 362.83 228.006 362.822 226.18C362.813 224.354 362.963 223.509 363.154 224.302C363.344 225.096 363.351 226.59 363.169 227.622ZM505.125 226.201C504.89 226.457 504.464 225.996 504.177 225.178C503.763 223.995 503.85 223.9 504.604 224.713C505.126 225.277 505.36 225.946 505.125 226.201ZM258.127 258.965V290.506L254.503 290.361L250.88 290.216L254.122 289.898L257.364 289.58V258.503C257.364 241.41 257.535 227.425 257.745 227.425C257.955 227.425 258.127 241.618 258.127 258.965ZM509.354 242.365C509.619 244.542 509.03 242.984 507.941 238.63C506.914 234.521 506.098 230.786 506.13 230.33C506.24 228.73 508.902 238.667 509.354 242.365ZM374.628 253.759C374.463 255.481 374.325 254.276 374.322 251.08C374.319 247.885 374.454 246.475 374.622 247.949C374.791 249.423 374.793 252.037 374.628 253.759ZM272.445 289.893L276.815 290.192L272.048 290.349L267.28 290.506L267.454 273.283L267.628 256.06L267.851 272.827L268.074 289.594L272.445 289.893ZM510.374 271.208C510.183 272.007 510.026 271.353 510.026 269.756C510.026 268.158 510.183 267.505 510.374 268.303C510.567 269.101 510.567 270.41 510.374 271.208ZM509.591 279.923C509.38 280.494 509.207 280.027 509.207 278.886C509.207 277.744 509.38 277.278 509.591 277.848C509.803 278.419 509.803 279.353 509.591 279.923ZM506.307 293.707C505.608 296.065 504.882 297.828 504.695 297.624C504.507 297.42 504.939 295.337 505.654 292.996C506.368 290.655 507.094 288.892 507.267 289.079C507.438 289.267 507.007 291.349 506.307 293.707ZM311.315 291.837C311.062 292.113 310.404 292.143 309.854 291.903C309.245 291.638 309.426 291.441 310.315 291.402C311.119 291.366 311.569 291.562 311.315 291.837ZM319.706 292.667C319.453 292.943 318.795 292.973 318.245 292.733C317.636 292.468 317.817 292.271 318.705 292.232C319.509 292.196 319.959 292.392 319.706 292.667ZM362.649 297.935C362.189 298.871 361.457 299.636 361.022 299.636C360.587 299.636 360.771 299.049 361.431 298.332C362.09 297.614 362.681 295.84 362.744 294.39C362.85 291.939 362.88 291.91 363.172 293.993C363.345 295.225 363.11 296.999 362.649 297.935ZM327.334 293.497C327.081 293.773 326.423 293.803 325.873 293.563C325.264 293.298 325.445 293.101 326.333 293.062C327.137 293.026 327.587 293.222 327.334 293.497ZM334.199 294.327C333.946 294.603 333.288 294.633 332.738 294.393C332.129 294.128 332.31 293.931 333.199 293.892C334.003 293.856 334.453 294.052 334.199 294.327ZM217.475 299.004C217.293 300.036 217.136 299.387 217.128 297.561C217.119 295.735 217.269 294.89 217.46 295.684C217.65 296.477 217.657 297.971 217.475 299.004ZM344.116 295.987C343.862 296.263 343.204 296.293 342.654 296.053C342.045 295.788 342.226 295.591 343.115 295.552C343.919 295.516 344.369 295.712 344.116 295.987ZM354.444 297.691C353.928 297.918 352.898 297.932 352.156 297.721C351.413 297.51 351.836 297.325 353.095 297.308C354.353 297.291 354.96 297.463 354.444 297.691ZM266.832 299.567C266.659 299.757 266.517 327.92 266.517 362.15V424.387L273.192 423.87C280.235 423.323 288.526 421.293 295.504 418.407C300.199 416.464 308.032 411.764 307.514 411.2C307.329 410.999 305.581 411.805 303.629 412.992C301.677 414.179 300.08 414.94 300.08 414.682C300.08 413.926 306.44 410.477 307.865 410.459C310.067 410.433 318.178 403.429 324.87 395.777C340.141 378.316 352.16 352.566 359.616 321.334C360.854 316.149 361.867 311.239 361.867 310.423C361.867 309.21 360.644 308.697 355.192 307.623C335.342 303.711 319.747 301.704 299.699 300.482C283.463 299.493 267.31 299.043 266.832 299.567ZM258.127 361.887V423.309L256.029 423.196C254.23 423.099 254.176 423.031 255.647 422.723L257.364 422.363V361.875V301.387L253.74 301.076L250.117 300.765L254.122 300.616L258.127 300.466V361.887ZM272.429 301.08L268.043 301.379V361.868C268.043 418.778 268.122 422.379 269.378 422.737C270.382 423.022 270.288 423.14 268.996 423.212L267.28 423.309V361.887V300.466L272.048 300.623L276.815 300.78L272.429 301.08ZM377.822 302.658C378.587 303.376 375.101 302.847 374.071 302.088C373.236 301.473 373.544 301.396 375.216 301.802C376.474 302.109 377.647 302.494 377.822 302.658ZM205.286 311.049C205.122 312.761 204.987 311.36 204.987 307.936C204.987 304.512 205.122 303.112 205.286 304.824C205.451 306.536 205.451 309.337 205.286 311.049ZM311.315 302.628C311.062 302.903 310.404 302.933 309.854 302.693C309.245 302.428 309.426 302.232 310.315 302.192C311.119 302.156 311.569 302.352 311.315 302.628ZM319.706 303.458C319.453 303.733 318.795 303.763 318.245 303.523C317.636 303.258 317.817 303.062 318.705 303.022C319.509 302.986 319.959 303.182 319.706 303.458ZM384.751 304.616C385.38 305.059 385.551 305.421 385.132 305.421C384.712 305.421 383.854 305.059 383.225 304.616C382.596 304.174 382.424 303.812 382.844 303.812C383.263 303.812 384.121 304.174 384.751 304.616ZM335.932 305.446C337.426 305.967 337.508 306.108 336.313 306.095C335.474 306.087 333.758 305.795 332.499 305.446C330.443 304.877 330.404 304.811 332.118 304.797C333.167 304.789 334.883 305.081 335.932 305.446ZM393.141 307.106C393.771 307.549 393.942 307.911 393.523 307.911C393.103 307.911 392.245 307.549 391.616 307.106C390.986 306.664 390.815 306.302 391.234 306.302C391.654 306.302 392.512 306.664 393.141 307.106ZM347.93 307.608C347.676 307.883 347.018 307.913 346.468 307.673C345.859 307.408 346.04 307.212 346.929 307.172C347.733 307.136 348.183 307.332 347.93 307.608ZM500.165 310.001C499.467 311.593 498.761 312.748 498.595 312.568C498.247 312.188 500.562 307.106 501.084 307.106C501.276 307.106 500.862 308.409 500.165 310.001ZM398.481 308.766C399.11 309.209 399.282 309.571 398.862 309.571C398.443 309.571 397.585 309.209 396.955 308.766C396.326 308.324 396.154 307.962 396.574 307.962C396.993 307.962 397.852 308.324 398.481 308.766ZM406.109 311.256C406.738 311.699 406.91 312.061 406.49 312.061C406.071 312.061 405.212 311.699 404.583 311.256C403.954 310.814 403.782 310.452 404.202 310.452C404.621 310.452 405.479 310.814 406.109 311.256ZM372.868 312.813C373.095 313.212 372.435 313.539 371.402 313.539C370.368 313.539 369.708 313.212 369.935 312.813C370.162 312.413 370.822 312.086 371.402 312.086C371.981 312.086 372.641 312.413 372.868 312.813ZM414.5 314.576C415.129 315.019 415.3 315.381 414.881 315.381C414.461 315.381 413.603 315.019 412.974 314.576C412.345 314.134 412.173 313.772 412.593 313.772C413.012 313.772 413.87 314.134 414.5 314.576ZM386.276 316.236C387.671 317.217 386.466 317.217 384.369 316.236C383.363 315.766 383.233 315.508 383.988 315.478C384.617 315.452 385.647 315.794 386.276 316.236ZM97.1768 316.645C97.1768 316.87 93.0577 319.301 88.0232 322.047C82.9888 324.792 78.8697 326.853 78.8697 326.625C78.8697 326.309 96.0707 316.486 96.9861 316.28C97.0906 316.256 97.1768 316.421 97.1768 316.645ZM358.812 319.318C357.981 320.729 357.959 320.726 358.376 319.281C358.618 318.445 358.843 317.325 358.876 316.791C358.919 316.091 359.041 316.101 359.311 316.827C359.517 317.381 359.293 318.502 358.812 319.318ZM496.028 318.104C494.676 320.885 487.733 332.007 487.349 332.007C487.166 332.007 489.141 328.458 491.739 324.122C496.32 316.474 497.891 314.269 496.028 318.104ZM391.616 317.897C392.245 318.339 392.417 318.701 391.997 318.701C391.578 318.701 390.719 318.339 390.09 317.897C389.461 317.454 389.289 317.092 389.709 317.092C390.128 317.092 390.986 317.454 391.616 317.897ZM422.89 317.897C423.52 318.339 423.691 318.701 423.272 318.701C422.852 318.701 421.994 318.339 421.365 317.897C420.735 317.454 420.564 317.092 420.983 317.092C421.403 317.092 422.261 317.454 422.89 317.897ZM439.428 326.098C440.191 326.581 440.606 326.988 440.351 327.002C439.585 327.043 426.704 320.434 426.704 320C426.704 319.598 436.814 324.444 439.428 326.098ZM100.754 325.159C100.562 325.958 100.405 325.304 100.405 323.707C100.405 322.109 100.562 321.456 100.754 322.254C100.946 323.053 100.946 324.361 100.754 325.159ZM404.583 322.047C405.212 322.489 405.384 322.851 404.965 322.851C404.545 322.851 403.687 322.489 403.058 322.047C402.428 321.604 402.257 321.242 402.676 321.242C403.096 321.242 403.954 321.604 404.583 322.047ZM409.16 323.707C409.789 324.149 409.961 324.511 409.541 324.511C409.122 324.511 408.264 324.149 407.634 323.707C407.005 323.264 406.833 322.902 407.253 322.902C407.673 322.902 408.531 323.264 409.16 323.707ZM356.655 328.879C356.089 329.495 355.99 329.171 356.322 327.79C356.592 326.668 356.938 326.291 357.128 326.913C357.311 327.512 357.099 328.396 356.655 328.879ZM421.365 328.687C421.994 329.129 422.166 329.491 421.746 329.491C421.327 329.491 420.468 329.129 419.839 328.687C419.21 328.244 419.038 327.882 419.458 327.882C419.877 327.882 420.735 328.244 421.365 328.687ZM365.681 333.667C365.206 335.585 364.686 337.011 364.525 336.837C364.365 336.662 364.604 334.929 365.057 332.988C365.51 331.046 366.029 329.62 366.212 329.818C366.395 330.016 366.155 331.749 365.681 333.667ZM428.631 332.677C428.397 332.932 427.781 332.677 427.263 332.11C426.516 331.29 426.604 331.195 427.691 331.645C428.443 331.957 428.866 332.421 428.631 332.677ZM456.655 337.224C460.332 339.942 463.543 342.521 463.79 342.956C464.247 343.761 449.838 333.237 448.444 331.748C447.163 330.38 449.535 331.962 456.655 337.224ZM88.0232 332.393C88.0232 332.604 87.2513 333.185 86.3069 333.683C84.6585 334.552 84.6494 334.538 86.0712 333.297C87.6273 331.941 88.0232 331.758 88.0232 332.393ZM67.0082 333.556C65.7458 334.81 59.037 338.825 59.037 338.327C59.037 338.065 60.8387 336.726 63.0417 335.352C67.1242 332.804 68.3035 332.27 67.0082 333.556ZM486.965 333.151C486.965 333.322 486.364 333.976 485.63 334.603C484.42 335.635 484.394 335.606 485.342 334.289C486.339 332.907 486.965 332.467 486.965 333.151ZM83.4465 334.898C83.4465 335.119 81.7302 336.245 79.6325 337.402C77.5348 338.559 75.8185 339.319 75.8185 339.092C75.8185 338.864 77.4486 337.756 79.4418 336.627C83.5151 334.319 83.4465 334.349 83.4465 334.898ZM354.162 338.149C353.724 339.878 353.227 341.144 353.059 340.961C352.892 340.778 353.114 339.214 353.552 337.485C353.991 335.756 354.487 334.49 354.655 334.673C354.823 334.855 354.601 336.42 354.162 338.149ZM447.491 343.103L449.207 344.654L447.3 343.437C446.251 342.768 442.733 340.636 439.481 338.698C436.229 336.761 433.569 334.998 433.569 334.781C433.569 334.18 445.531 341.33 447.491 343.103ZM70.8924 343.494C70.0709 343.671 68.6116 344.377 67.6505 345.061C66.6886 345.747 65.9022 346.115 65.9022 345.879C65.9022 344.941 70.8443 342.116 71.5896 342.627C72.0366 342.934 71.7315 343.314 70.8924 343.494ZM360.278 350.613C358.958 354.58 357.752 357.688 357.597 357.518C357.442 357.35 358.391 353.962 359.706 349.991C361.02 346.019 362.226 342.912 362.385 343.085C362.546 343.259 361.597 346.647 360.278 350.613ZM50.5486 345.008C49.5997 346.26 49.6623 346.296 51.2184 345.394C52.9934 344.365 53.4305 343.627 52.2649 343.627C51.8973 343.627 51.1246 344.249 50.5486 345.008ZM351.281 346.677C350.381 348.36 350.165 347.821 350.901 345.734C351.162 344.992 351.537 344.56 351.733 344.774C351.93 344.987 351.726 345.844 351.281 346.677ZM46.0352 348.238C44.8063 349.849 42.2548 351.379 42.2571 350.504C42.2578 350.145 43.2014 349.233 44.3547 348.475C47.052 346.704 47.2229 346.68 46.0352 348.238ZM53.3023 353.643C48.1733 358.198 47.4784 359.269 48.4143 361.172C48.8323 362.022 49.5585 362.717 50.0284 362.717C50.4991 362.717 50.2939 362.009 49.5723 361.142C48.1588 359.442 47.8544 359.83 56.7486 352.001C57.7975 351.078 58.3063 350.31 57.8791 350.295C57.4519 350.28 55.3924 351.786 53.3023 353.643ZM349.162 352.378C348.914 353.083 348.547 353.481 348.347 353.264C348.147 353.046 348.21 352.469 348.487 351.983C349.239 350.658 349.678 350.915 349.162 352.378ZM345.318 361.462C344.62 363.054 343.914 364.209 343.748 364.029C343.399 363.65 345.715 358.567 346.237 358.567C346.428 358.567 346.015 359.87 345.318 361.462ZM354.302 365.338C353.017 367.777 351.962 369.48 351.957 369.123C351.944 367.932 355.86 360.056 356.253 360.482C356.465 360.714 355.587 362.898 354.302 365.338ZM459.504 363.063C459.504 363.253 458.045 364.595 456.263 366.047L453.021 368.684L456.072 365.714C459.158 362.707 459.504 362.44 459.504 363.063ZM54.5579 365C55.506 366.316 55.4793 366.345 54.2696 365.314C53.535 364.687 52.9347 364.033 52.9347 363.861C52.9347 363.178 53.5609 363.617 54.5579 365ZM58.3719 368.32C59.32 369.636 59.2933 369.666 58.0835 368.634C56.8127 367.549 56.4092 366.868 57.037 366.868C57.1949 366.868 57.796 367.522 58.3719 368.32ZM61.423 370.81C62.3712 372.127 62.3445 372.156 61.1347 371.124C59.8639 370.039 59.4604 369.358 60.0882 369.358C60.2461 369.358 60.8471 370.012 61.423 370.81ZM171.697 374.114C171.503 374.922 171.332 374.462 171.317 373.093C171.301 371.723 171.459 371.062 171.668 371.624C171.877 372.186 171.89 373.307 171.697 374.114ZM338.815 374.349C337.858 376.181 336.296 378.703 335.344 379.952C334.39 381.201 335.029 379.701 336.763 376.62C340.178 370.551 341.645 368.928 338.815 374.349ZM64.4742 373.3C65.4224 374.617 65.3957 374.646 64.1859 373.614C62.9151 372.529 62.5116 371.848 63.1393 371.848C63.2972 371.848 63.8983 372.502 64.4742 373.3ZM117.707 376.828C117.679 377.649 117.442 377.508 117.009 376.413C116.109 374.131 116.109 372.82 117.009 374.338C117.416 375.022 117.73 376.143 117.707 376.828ZM67.5254 375.79C68.4736 377.107 68.4469 377.136 67.2371 376.104C65.9663 375.019 65.5627 374.338 66.1905 374.338C66.3484 374.338 66.9495 374.992 67.5254 375.79ZM153.389 378.264C153.196 379.072 153.025 378.612 153.01 377.243C152.994 375.873 153.152 375.213 153.361 375.774C153.57 376.336 153.583 377.457 153.389 378.264ZM176.424 384.298C176.395 384.983 175.893 383.675 175.31 381.393C174.726 379.11 174.272 376.682 174.302 375.998C174.331 375.313 174.833 376.62 175.417 378.903C176 381.185 176.454 383.613 176.424 384.298ZM173.391 381.393C173.414 381.849 173.1 381.663 172.693 380.978C172.287 380.293 171.973 379.173 171.996 378.488C172.041 377.173 173.311 379.821 173.391 381.393ZM347.997 379.636C347.863 379.72 347.099 380.335 346.297 381.005C344.92 382.156 344.897 382.124 345.878 380.409C346.449 379.412 347.213 378.795 347.577 379.04C347.94 379.284 348.129 379.553 347.997 379.636ZM152.098 382.361C152.098 385.918 151.744 385.798 151.083 382.015C150.811 380.466 150.927 379.318 151.354 379.318C151.763 379.318 152.098 380.687 152.098 382.361ZM119.151 382.244C118.916 382.5 118.489 382.039 118.202 381.221C117.789 380.038 117.876 379.943 118.63 380.756C119.151 381.32 119.386 381.99 119.151 382.244ZM436.671 381.737C434.366 383.665 429.861 386.495 430.9 385.362C431.923 384.246 437.635 380.143 438.132 380.166C438.35 380.176 437.692 380.883 436.671 381.737ZM333.643 382.952C333.643 383.123 333.042 383.777 332.308 384.404C331.099 385.436 331.072 385.407 332.02 384.09C333.017 382.708 333.643 382.268 333.643 382.952ZM174.82 388.562C174.629 389.183 174.284 388.807 174.014 387.684C173.682 386.304 173.781 385.98 174.347 386.595C174.791 387.078 175.003 387.962 174.82 388.562ZM331.355 386.244C331.355 386.402 330.583 387.242 329.639 388.112L327.922 389.693L329.375 387.825C330.741 386.071 331.355 385.58 331.355 386.244ZM98.3065 395.795C97.9548 396.178 88.0232 391.192 88.0232 390.633C88.0232 390.418 90.4024 391.419 93.3109 392.86C96.2187 394.3 98.4667 395.621 98.3065 395.795ZM322.565 396.809C319.218 400.494 315.451 404.319 314.192 405.309C312.933 406.298 315.508 403.296 319.913 398.636C324.318 393.978 328.086 390.153 328.286 390.137C328.486 390.121 325.912 393.123 322.565 396.809ZM338.333 393.221C337.498 394.476 334.539 398.118 331.756 401.313C327.212 406.531 327.34 406.297 333.01 399.031C339.295 390.976 341.223 388.87 338.333 393.221ZM157.372 395.918C157.409 397.025 157.332 397.025 156.675 395.918C156.268 395.233 155.954 393.926 155.978 393.013L156.02 391.353L156.675 393.013C157.036 393.926 157.349 395.233 157.372 395.918ZM176.346 394.372C176.155 394.993 175.81 394.617 175.539 393.494C175.208 392.114 175.307 391.79 175.873 392.405C176.317 392.889 176.529 393.773 176.346 394.372ZM419.076 392.991C419.076 393.208 418.047 393.965 416.788 394.673C413.919 396.287 413.746 395.586 416.597 393.903C418.995 392.488 419.076 392.458 419.076 392.991ZM409.859 397.894C409.084 398.662 401.532 402.543 401.532 402.173C401.532 401.668 408.502 397.67 409.478 397.617C409.862 397.596 410.034 397.72 409.859 397.894ZM156.513 402.672C156.322 403.294 155.977 402.917 155.707 401.795C155.375 400.414 155.474 400.09 156.04 400.706C156.484 401.189 156.696 402.073 156.513 402.672ZM179.535 403.803C179.535 404.26 179.202 404.073 178.796 403.388C178.389 402.704 178.057 401.77 178.057 401.313C178.057 400.857 178.389 401.043 178.796 401.728C179.202 402.413 179.535 403.347 179.535 403.803ZM181.847 402.656C181.847 403.113 181.504 403.255 181.084 402.973C180.665 402.691 180.321 402.087 180.321 401.63C180.321 401.174 180.665 401.031 181.084 401.313C181.504 401.595 181.847 402.2 181.847 402.656ZM181.061 407.953C181.061 408.41 180.728 408.223 180.321 407.538C179.915 406.854 179.582 405.92 179.582 405.463C179.582 405.007 179.915 405.194 180.321 405.878C180.728 406.563 181.061 407.497 181.061 407.953ZM160.219 413.919C159.889 414.278 157.404 407.882 157.492 406.899C157.521 406.566 158.215 407.935 159.033 409.942C159.851 411.948 160.385 413.739 160.219 413.919ZM395.276 413.745C394.363 415.79 393.485 417.32 393.326 417.146C392.98 416.771 396.063 410.028 396.579 410.028C396.775 410.028 396.189 411.701 395.276 413.745ZM319.15 413.662C319.15 413.834 318.549 414.488 317.815 415.115C316.605 416.146 316.579 416.117 317.527 414.801C318.524 413.418 319.15 412.979 319.15 413.662ZM316.099 416.214C316.099 416.42 314.554 417.745 312.666 419.159C310.778 420.572 309.234 421.544 309.234 421.319C309.234 420.972 315.35 415.984 315.908 415.876C316.013 415.855 316.099 416.007 316.099 416.214ZM189.094 419.159C189.744 420.528 190.105 421.649 189.895 421.649C189.686 421.649 188.981 420.528 188.331 419.159C187.68 417.789 187.319 416.669 187.529 416.669C187.739 416.669 188.443 417.789 189.094 419.159ZM293.215 418.329C292.586 418.771 291.556 419.113 290.927 419.087C290.172 419.057 290.302 418.799 291.308 418.329C293.405 417.348 294.61 417.348 293.215 418.329ZM341.653 418.329C339.556 419.309 338.351 419.309 339.746 418.329C340.375 417.886 341.405 417.544 342.034 417.57C342.788 417.6 342.659 417.858 341.653 418.329ZM235.036 420.49C234.783 420.766 234.124 420.795 233.574 420.556C232.966 420.291 233.147 420.094 234.035 420.054C234.839 420.018 235.289 420.214 235.036 420.49ZM168.117 424.139C168.973 425.965 169.502 427.459 169.292 427.459C169.082 427.459 168.21 425.965 167.354 424.139C166.498 422.313 165.969 420.819 166.178 420.819C166.388 420.819 167.261 422.313 168.117 424.139ZM238.087 421.32C237.834 421.596 237.176 421.625 236.626 421.386C236.017 421.121 236.198 420.924 237.086 420.884C237.89 420.848 238.34 421.044 238.087 421.32ZM281.392 421.649C280.553 422.041 279.008 422.344 277.959 422.322C276.229 422.286 276.264 422.224 278.341 421.649C281.517 420.769 283.273 420.769 281.392 421.649ZM246.494 422.221C245.76 422.43 244.558 422.43 243.824 422.221C243.09 422.012 243.691 421.841 245.159 421.841C246.627 421.841 247.228 422.012 246.494 422.221ZM191.763 424.139C192.213 425.052 192.408 425.799 192.198 425.799C191.988 425.799 191.45 425.052 191.001 424.139C190.551 423.226 190.356 422.479 190.566 422.479C190.776 422.479 191.314 423.226 191.763 424.139ZM306.335 424.305C305.845 424.838 305.192 424.998 304.883 424.661C304.573 424.324 304.815 423.715 305.42 423.309C306.845 422.351 307.488 423.051 306.335 424.305ZM318.181 422.98C317.927 423.256 317.269 423.285 316.719 423.046C316.11 422.781 316.291 422.584 317.18 422.544C317.984 422.509 318.434 422.704 318.181 422.98ZM344.631 424.262C342.332 427.085 332.522 436.024 329.912 437.674C326.157 440.048 327.153 438.766 331.546 435.572C333.748 433.97 337.781 430.385 340.508 427.606C345.611 422.405 347.183 421.131 344.631 424.262ZM389.41 425.591C389.006 426.39 388.1 427.791 387.396 428.704C386.166 430.297 386.159 430.281 387.204 428.289C389.203 424.481 389.415 424.139 389.78 424.139C389.98 424.139 389.814 424.793 389.41 425.591ZM137.756 428.911C138.79 430.624 140.244 433.144 140.988 434.514L142.341 437.004L140.545 434.733C138.706 432.407 135.029 425.799 135.574 425.799C135.741 425.799 136.722 427.2 137.756 428.911ZM221.748 432.758L224.654 437.004L221.87 433.684C220.339 431.858 218.598 429.243 218 427.874C217.384 426.461 217.331 426.06 217.878 426.947C218.409 427.807 220.15 430.422 221.748 432.758ZM171.168 429.949C171.617 430.862 171.812 431.609 171.603 431.609C171.393 431.609 170.854 430.862 170.405 429.949C169.956 429.036 169.761 428.289 169.97 428.289C170.18 428.289 170.719 429.036 171.168 429.949ZM127.531 436.103C128.494 437.968 128.666 438.592 127.913 437.49C127.16 436.387 125.757 433.959 124.795 432.094C123.832 430.229 123.66 429.606 124.413 430.708C125.166 431.811 126.569 434.238 127.531 436.103ZM385.596 432.231C385.192 433.03 384.286 434.431 383.582 435.344C382.352 436.938 382.345 436.921 383.39 434.929C385.389 431.122 385.601 430.779 385.966 430.779C386.166 430.779 386 431.433 385.596 432.231ZM196.706 437.211C198.344 439.379 198.895 440.407 197.93 439.494C196.224 437.88 192.911 433.269 193.457 433.269C193.606 433.269 195.069 435.043 196.706 437.211ZM174.284 440.117C175.741 442.931 174.449 441.523 171.999 437.626C170.123 434.643 170.008 434.289 171.526 436.174C172.629 437.543 173.87 439.318 174.284 440.117ZM355.509 444.121C350.824 449.177 347.679 452.938 348.518 452.477C350.333 451.483 365.549 434.929 364.648 434.929C364.306 434.929 360.193 439.066 355.509 444.121ZM179.559 441.984C180.544 443.125 181.179 444.059 180.969 444.059C180.759 444.059 179.781 443.125 178.796 441.984C177.81 440.843 177.176 439.909 177.385 439.909C177.595 439.909 178.573 440.843 179.559 441.984ZM325.253 440.307C325.253 440.875 319.889 443.745 317.625 444.388C316.576 444.687 317.777 443.833 320.294 442.491C325.677 439.623 325.253 439.809 325.253 440.307ZM256.239 444.729C256.005 444.985 255.39 444.73 254.872 444.162C254.124 443.342 254.212 443.247 255.299 443.697C256.051 444.009 256.474 444.473 256.239 444.729ZM131.503 444.788C131.503 445.188 132.074 446.029 132.772 446.655C133.922 447.688 133.956 447.62 133.127 445.927C132.181 443.995 131.503 443.52 131.503 444.788ZM209.405 447.172C210.353 448.488 210.327 448.517 209.117 447.485C207.846 446.401 207.443 445.719 208.07 445.719C208.228 445.719 208.829 446.373 209.405 447.172ZM311.522 446.549C310.893 446.992 310.035 447.353 309.615 447.353C309.196 447.353 309.367 446.992 309.997 446.549C310.626 446.107 311.484 445.745 311.904 445.745C312.323 445.745 312.152 446.107 311.522 446.549ZM241.726 450.927C242.923 452.17 238.091 449.327 236.387 447.786C235.548 447.027 236.234 447.246 237.912 448.271C239.591 449.296 241.307 450.491 241.726 450.927ZM207.401 449.039C208.16 449.952 208.61 450.699 208.4 450.699C208.19 450.699 207.397 449.952 206.638 449.039C205.879 448.126 205.429 447.379 205.639 447.379C205.848 447.379 206.642 448.126 207.401 449.039ZM306.183 448.209C305.553 448.652 304.524 448.994 303.894 448.968C303.14 448.938 303.27 448.68 304.276 448.209C306.373 447.229 307.577 447.229 306.183 448.209ZM187.949 451.114C189.373 452.712 190.365 454.019 190.155 454.019C189.946 454.019 188.61 452.712 187.187 451.114C185.763 449.516 184.771 448.209 184.981 448.209C185.19 448.209 186.526 449.516 187.949 451.114ZM278.927 450.414C278.411 450.641 277.381 450.655 276.639 450.444C275.897 450.234 276.319 450.048 277.578 450.031C278.836 450.014 279.444 450.186 278.927 450.414ZM283.299 450.235C283.299 450.437 282.956 450.832 282.536 451.114C282.116 451.396 281.773 451.231 281.773 450.748C281.773 450.265 282.116 449.869 282.536 449.869C282.956 449.869 283.299 450.034 283.299 450.235ZM294.534 450.371C294.281 450.646 293.622 450.676 293.072 450.436C292.464 450.171 292.645 449.975 293.533 449.935C294.337 449.899 294.787 450.095 294.534 450.371ZM354.969 453.701C347.763 461.819 330.592 477.643 330.592 476.167C330.592 475.966 333.08 473.743 336.122 471.227C339.164 468.711 345.257 462.895 349.662 458.302C358.109 449.496 360.684 447.263 354.969 453.701ZM219.987 458.799C221.059 460.093 213.499 455.024 211.386 453.031C210.033 451.756 211.329 452.428 214.266 454.526C217.203 456.622 219.777 458.545 219.987 458.799ZM343.56 452.673C343.56 452.845 342.959 453.499 342.225 454.126C341.015 455.157 340.988 455.128 341.936 453.812C342.933 452.429 343.56 451.99 343.56 452.673ZM192.624 455.472C193.572 456.788 193.545 456.817 192.335 455.786C191.602 455.159 191.001 454.505 191.001 454.333C191.001 453.65 191.627 454.089 192.624 455.472ZM259.252 458.882C258.857 459.312 249.614 455.674 248.6 454.688C248.185 454.285 250.483 454.986 253.705 456.248C256.928 457.509 259.424 458.694 259.252 458.882ZM229.496 461.377C229.165 461.74 219.224 455.769 219.224 455.208C219.224 454.994 221.597 456.226 224.498 457.946C227.399 459.667 229.648 461.211 229.496 461.377ZM198.629 460.357C198.629 460.586 197.599 459.975 196.34 458.999C195.082 458.024 194.052 457.04 194.052 456.812C194.052 456.583 195.082 457.194 196.34 458.169C197.599 459.145 198.629 460.129 198.629 460.357ZM362.225 464.004C358.901 467.643 356.526 470.62 356.945 470.62C357.941 470.62 369.149 458.346 368.65 457.803C368.44 457.576 365.549 460.366 362.225 464.004ZM338.516 460.732C334.776 463.962 334.761 463.98 335.678 463.98C336.506 463.98 342.715 458.261 341.949 458.204C341.692 458.185 340.147 459.322 338.516 460.732ZM266.899 460.659C267.905 461.13 268.034 461.388 267.28 461.418C266.651 461.444 265.621 461.102 264.992 460.659C263.597 459.679 264.802 459.679 266.899 460.659ZM299.699 461.489C298.86 461.882 297.487 462.192 296.648 462.178C295.421 462.158 295.496 462.024 297.029 461.489C299.637 460.581 301.642 460.581 299.699 461.489ZM332.88 460.973C332.88 461.145 332.279 461.799 331.546 462.426C330.336 463.457 330.309 463.428 331.257 462.112C332.254 460.729 332.88 460.29 332.88 460.973ZM235.243 466.227C235.452 466.474 234.796 466.398 233.783 466.059C230.832 465.069 226.852 463.161 226.852 462.735C226.852 462.29 234.657 465.538 235.243 466.227ZM243.3 466.279C242.884 466.733 233.744 463.868 233.34 463.158C233.156 462.833 235.388 463.331 238.299 464.264C241.211 465.197 243.461 466.104 243.3 466.279ZM314.573 463.488C314.573 463.989 305.206 467.343 304.858 466.965C304.695 466.787 306.557 465.886 308.996 464.961C313.703 463.177 314.573 462.947 314.573 463.488ZM328.304 464.373C328.304 464.59 327.274 465.347 326.015 466.055C323.146 467.669 322.973 466.968 325.825 465.284C328.222 463.869 328.304 463.839 328.304 464.373ZM213.557 469.592C213.215 469.965 205.494 465.778 205.494 465.22C205.494 465.004 207.372 465.83 209.668 467.055C211.964 468.281 213.714 469.422 213.557 469.592ZM301.606 465.64C300.977 466.082 299.947 466.424 299.317 466.398C298.563 466.368 298.693 466.11 299.699 465.64C301.796 464.659 303 464.659 301.606 465.64ZM206.542 468.615C208.482 469.796 210.07 470.924 210.07 471.123C210.07 471.501 205.175 468.807 203.205 467.344C201.006 465.712 203.043 466.488 206.542 468.615ZM246.478 466.971C246.225 467.246 245.566 467.276 245.016 467.036C244.408 466.772 244.588 466.575 245.477 466.535C246.281 466.499 246.731 466.695 246.478 466.971ZM329.829 466.873C329.829 467.615 320.737 472.281 319.363 472.243C318.616 472.223 319.207 471.73 320.676 471.148C322.144 470.565 324.719 469.29 326.397 468.316C329.836 466.318 329.829 466.32 329.829 466.873ZM241.345 468.13C241.974 468.572 242.146 468.934 241.726 468.934C241.307 468.934 240.449 468.572 239.819 468.13C239.19 467.687 239.019 467.325 239.438 467.325C239.858 467.325 240.716 467.687 241.345 468.13ZM247.241 469.461C246.987 469.737 246.329 469.766 245.779 469.527C245.17 469.262 245.351 469.065 246.24 469.025C247.044 468.989 247.494 469.185 247.241 469.461ZM260.971 469.461C260.718 469.737 260.059 469.766 259.509 469.527C258.901 469.262 259.082 469.065 259.97 469.025C260.774 468.989 261.224 469.185 260.971 469.461ZM315.718 471.48C313.2 472.788 310.798 473.848 310.378 473.835C309.399 473.806 318.516 469.084 319.532 469.094C319.951 469.098 318.235 470.172 315.718 471.48ZM256.394 471.121C256.141 471.397 255.483 471.426 254.933 471.187C254.324 470.922 254.505 470.725 255.393 470.685C256.197 470.65 256.647 470.845 256.394 471.121ZM220.077 474.77C220.587 474.77 220.782 475.01 220.512 475.304C219.893 475.979 213.122 473.213 213.122 472.286C213.122 471.909 214.478 472.314 216.136 473.185C217.794 474.057 219.567 474.77 220.077 474.77ZM262.497 471.951C262.243 472.227 261.585 472.256 261.035 472.017C260.426 471.752 260.607 471.555 261.496 471.515C262.3 471.48 262.75 471.675 262.497 471.951ZM284.618 471.951C284.364 472.227 283.706 472.256 283.156 472.017C282.547 471.752 282.728 471.555 283.617 471.515C284.421 471.48 284.871 471.675 284.618 471.951ZM350.425 475.731C348.537 477.591 345.448 480.211 343.56 481.553L340.127 483.993L342.771 481.664C344.225 480.383 347.142 477.774 349.255 475.866C354.175 471.421 354.88 471.34 350.425 475.731ZM164.303 478.644C164.303 478.873 162.93 477.876 161.252 476.43C159.573 474.984 158.2 473.614 158.2 473.385C158.2 473.157 159.573 474.154 161.252 475.6C162.93 477.046 164.303 478.416 164.303 478.644ZM224.945 473.94C225.951 474.41 226.081 474.668 225.326 474.698C224.697 474.724 223.667 474.382 223.038 473.94C221.644 472.959 222.848 472.959 224.945 473.94ZM317.625 473.436C317.625 473.615 317.092 473.985 316.441 474.257C315.762 474.54 315.456 474.4 315.723 473.931C316.171 473.141 317.625 472.764 317.625 473.436ZM182.991 476.83L184.517 478.181L182.991 477.366C182.152 476.918 180.779 475.943 179.94 475.2L178.414 473.848L179.94 474.664C180.779 475.112 182.152 476.086 182.991 476.83ZM313.811 475.107C313.811 475.61 306.735 478.138 306.387 477.759C306.222 477.579 307.568 476.863 309.377 476.167C312.943 474.795 313.811 474.587 313.811 475.107ZM232.192 476.43C232.821 476.872 232.992 477.234 232.573 477.234C232.153 477.234 231.295 476.872 230.666 476.43C230.037 475.987 229.865 475.625 230.285 475.625C230.704 475.625 231.562 475.987 232.192 476.43ZM302.369 476.354C301.739 476.742 300.366 477.287 299.317 477.566C297.728 477.989 297.791 477.874 299.699 476.874C302.144 475.593 304.282 475.176 302.369 476.354ZM238.675 478.09C239.681 478.56 239.811 478.819 239.057 478.848C238.427 478.874 237.398 478.532 236.768 478.09C235.374 477.11 236.578 477.11 238.675 478.09ZM230.666 478.92C231.295 479.362 231.467 479.724 231.047 479.724C230.628 479.724 229.77 479.362 229.14 478.92C228.511 478.477 228.339 478.116 228.759 478.116C229.178 478.116 230.037 478.477 230.666 478.92ZM326.778 478.967C324.833 480.416 314.917 485.797 315.583 485.042C316.426 484.087 326.195 478.317 327.16 478.204C327.579 478.155 327.407 478.499 326.778 478.967ZM194.49 483.699C194.146 484.075 187.949 480.721 187.949 480.159C187.949 479.946 189.486 480.584 191.365 481.578C193.244 482.57 194.651 483.526 194.49 483.699ZM257.157 481.081C256.904 481.357 256.245 481.387 255.696 481.147C255.087 480.882 255.268 480.685 256.156 480.645C256.96 480.61 257.41 480.806 257.157 481.081ZM243.061 481.959C242.537 482.19 241.679 482.19 241.154 481.959C240.63 481.729 241.059 481.541 242.108 481.541C243.157 481.541 243.586 481.729 243.061 481.959ZM248.766 482.741C248.513 483.017 247.855 483.047 247.305 482.807C246.696 482.542 246.877 482.345 247.765 482.305C248.569 482.27 249.02 482.466 248.766 482.741ZM287.669 482.741C287.416 483.017 286.757 483.047 286.207 482.807C285.599 482.542 285.779 482.345 286.668 482.305C287.472 482.27 287.922 482.466 287.669 482.741ZM280.041 483.571C279.788 483.847 279.129 483.877 278.579 483.637C277.971 483.372 278.151 483.175 279.04 483.135C279.844 483.1 280.294 483.296 280.041 483.571ZM181.483 490.382C181.154 490.74 174.219 486.412 174.219 485.848C174.219 485.637 175.916 486.502 177.991 487.771C180.065 489.04 181.637 490.216 181.483 490.382ZM202.443 487.693C202.443 487.921 201.756 487.709 200.917 487.22C200.078 486.731 199.391 486.145 199.391 485.917C199.391 485.689 200.078 485.901 200.917 486.39C201.756 486.879 202.443 487.465 202.443 487.693ZM335.169 487.606C335.169 487.818 334.397 488.399 333.453 488.897C331.804 489.766 331.795 489.751 333.217 488.511C334.773 487.154 335.169 486.971 335.169 487.606ZM211.215 490.54C212.221 491.011 212.35 491.269 211.596 491.299C210.967 491.324 209.937 490.982 209.308 490.54C207.913 489.56 209.118 489.56 211.215 490.54ZM305.42 490.036C305.42 490.216 304.887 490.585 304.236 490.857C303.557 491.14 303.251 491.001 303.518 490.531C303.966 489.742 305.42 489.364 305.42 490.036ZM331.355 490.096C331.355 490.308 330.583 490.889 329.639 491.387C327.99 492.256 327.981 492.241 329.403 491.001C330.959 489.644 331.355 489.461 331.355 490.096ZM187.949 493.445C188.998 494.098 189.513 494.631 189.094 494.631C188.674 494.631 187.473 494.098 186.424 493.445C185.375 492.793 184.86 492.259 185.28 492.259C185.699 492.259 186.901 492.793 187.949 493.445ZM295.192 493.95C292.712 494.82 290.531 495.367 290.344 495.162C289.931 494.714 296.941 492.305 298.555 492.341C299.184 492.354 297.671 493.078 295.192 493.95ZM221.131 493.86C222.137 494.331 222.267 494.589 221.512 494.619C220.883 494.645 219.853 494.303 219.224 493.86C217.83 492.88 219.034 492.88 221.131 493.86ZM323.727 494.259C323.727 494.762 317.893 498.024 317.083 497.973C316.751 497.952 318.025 497.035 319.913 495.935C323.758 493.694 323.727 493.708 323.727 494.259ZM195.979 497.85C195.744 498.106 195.129 497.851 194.611 497.283C193.863 496.463 193.951 496.368 195.038 496.818C195.79 497.13 196.214 497.594 195.979 497.85ZM239.613 497.682C239.36 497.957 238.701 497.987 238.151 497.747C237.543 497.482 237.723 497.286 238.612 497.246C239.416 497.21 239.866 497.406 239.613 497.682ZM278.515 497.682C278.262 497.957 277.604 497.987 277.054 497.747C276.445 497.482 276.626 497.286 277.515 497.246C278.318 497.21 278.769 497.406 278.515 497.682ZM246.478 498.512C246.225 498.787 245.566 498.817 245.016 498.577C244.408 498.312 244.588 498.116 245.477 498.076C246.281 498.04 246.731 498.236 246.478 498.512ZM272.413 498.512C272.16 498.787 271.501 498.817 270.951 498.577C270.343 498.312 270.523 498.116 271.412 498.076C272.216 498.04 272.666 498.236 272.413 498.512ZM207.019 501.745C208.488 502.36 209.174 502.876 208.545 502.89C207.916 502.904 206.371 502.403 205.112 501.775C202.166 500.308 203.536 500.286 207.019 501.745ZM310.759 500.826C310.759 501.006 310.227 501.375 309.576 501.647C308.897 501.93 308.591 501.791 308.858 501.321C309.306 500.532 310.759 500.154 310.759 500.826ZM299.874 505.152C299.62 505.427 298.962 505.457 298.412 505.217C297.803 504.952 297.984 504.756 298.873 504.716C299.677 504.68 300.127 504.876 299.874 505.152ZM237.324 509.302C237.071 509.577 236.413 509.607 235.863 509.367C235.254 509.103 235.435 508.906 236.324 508.866C237.128 508.83 237.578 509.026 237.324 509.302ZM281.566 509.302C281.313 509.577 280.655 509.607 280.105 509.367C279.496 509.103 279.677 508.906 280.566 508.866C281.37 508.83 281.82 509.026 281.566 509.302ZM244.19 510.132C243.936 510.407 243.278 510.437 242.728 510.197C242.119 509.933 242.3 509.736 243.189 509.696C243.993 509.66 244.443 509.856 244.19 510.132ZM274.701 510.132C274.448 510.407 273.79 510.437 273.24 510.197C272.631 509.933 272.812 509.736 273.701 509.696C274.505 509.66 274.955 509.856 274.701 510.132Z" fill="#CDCDCD"/>
</svg>
